<?xml version="1.0" encoding="utf-8"?>
<!-- Generator: Adobe Illustrator 16.0.3, SVG Export Plug-In . SVG Version: 6.00 Build 0)  -->
<!DOCTYPE svg PUBLIC "-//W3C//DTD SVG 1.1//EN" "http://www.w3.org/Graphics/SVG/1.1/DTD/svg11.dtd">
<svg version="1.1" id="Warstwa_1" xmlns="http://www.w3.org/2000/svg" xmlns:xlink="http://www.w3.org/1999/xlink" x="0px" y="0px"
	 width="155.91px" height="166.93px" viewBox="0 0 155.91 166.93" enable-background="new 0 0 155.91 166.93" xml:space="preserve">
<g>
	<g>
		<g>
			<g>
				<path fill="#FA7D00" d="M33.324,64.966h0.046l0.324,0.004c2.045,0.027,3.688,1.712,3.663,3.754l-0.419,32.374
					c-0.027,2.022-1.689,3.669-3.706,3.669h-0.046l-0.328-0.006c-2.042-0.024-3.682-1.713-3.656-3.762l0.419-32.375
					C29.646,66.607,31.308,64.966,33.324,64.966 M33.324,61.236c-4.048,0-7.381,3.289-7.434,7.339l-0.419,32.376
					c-0.052,4.102,3.245,7.486,7.339,7.541l0.325,0.004c0.032,0.001,0.064,0.001,0.097,0.001c4.056,0,7.382-3.291,7.437-7.35
					l0.419-32.375c0.051-4.085-3.253-7.48-7.345-7.532l-0.322-0.004C33.389,61.236,33.356,61.236,33.324,61.236L33.324,61.236z"/>
			</g>
			<g>
				<path fill="#FA7D00" d="M48.411,66.345l61.425,0.797l-0.613,47.393c-0.021,1.682-1.412,3.051-3.098,3.051h-0.041l-7.307-0.096
					c-0.017,0-0.033,0-0.049,0c-0.973,0-1.906,0.379-2.604,1.059c-0.709,0.69-1.114,1.634-1.127,2.623l-0.227,17.49
					c-0.025,2.023-1.691,3.67-3.713,3.67h-0.055l-0.309-0.003c-0.982-0.015-1.908-0.415-2.605-1.13
					c-0.699-0.714-1.076-1.65-1.063-2.639l0.229-17.49c0.014-0.987-0.367-1.943-1.059-2.65c-0.691-0.709-1.635-1.113-2.624-1.128
					l-10.205-0.133c-0.016,0-0.032,0-0.048,0c-0.972,0-1.906,0.38-2.603,1.059c-0.709,0.69-1.114,1.634-1.126,2.623l-0.227,17.492
					c-0.026,2.023-1.693,3.671-3.717,3.671H65.6l-0.321-0.005c-2.044-0.026-3.686-1.717-3.659-3.766l0.228-17.491
					c0.013-0.989-0.367-1.943-1.058-2.652c-0.691-0.708-1.634-1.113-2.625-1.126l-7.305-0.094c-0.825-0.012-1.599-0.345-2.181-0.94
					c-0.58-0.593-0.892-1.371-0.882-2.19L48.411,66.345 M44.729,62.567l-0.663,51.125c-0.049,3.758,2.983,6.859,6.744,6.908
					l7.306,0.094l-0.228,17.492c-0.053,4.105,3.254,7.492,7.341,7.545l0.319,0.006c0.032,0.001,0.065,0.001,0.098,0.001
					c4.058,0,7.395-3.282,7.447-7.355l0.227-17.489l10.205,0.133l-0.228,17.489c-0.054,4.106,3.265,7.491,7.349,7.546l0.315,0.004
					c0.032,0,0.065,0,0.099,0c4.061,0,7.39-3.28,7.442-7.352l0.228-17.491l7.307,0.096c0.029,0.001,0.059,0.001,0.088,0.001
					c3.719,0,6.781-3.005,6.828-6.733l0.662-51.125L44.729,62.567L44.729,62.567z"/>
			</g>
			<g>
				<path fill="#FA7D00" d="M79.092,31.819c0.162,0,0.326,0,0.49,0.003c4.703,0.06,9.219,0.997,13.424,2.782
					c0.358,0.152,0.729,0.245,1.1,0.28c0.272,0.272,0.59,0.502,0.941,0.68c8.875,4.493,14.53,12.436,15.1,21.026l-61.764-0.801
					c0.79-8.571,6.649-16.364,15.637-20.626c0.356-0.168,0.679-0.39,0.959-0.656c0.367-0.027,0.736-0.108,1.095-0.249
					C70.198,32.639,74.577,31.819,79.092,31.819 M63.382,51.566c3.844,0,7.01-3.124,7.058-6.964c0.047-3.885-3.079-7.087-6.97-7.137
					l-0.094,0c-3.843,0-7.009,3.122-7.057,6.957c-0.024,1.891,0.689,3.674,2.01,5.022c1.314,1.343,3.077,2.096,4.961,2.12
					L63.382,51.566 M95.443,51.982c3.839,0,7.003-3.121,7.053-6.963c0.049-3.888-3.074-7.089-6.961-7.141l-0.094,0
					c-3.844,0-7.01,3.123-7.059,6.961c-0.047,3.885,3.078,7.09,6.973,7.141L95.443,51.982 M57.785,20.866
					c-0.229,0-0.459,0.063-0.664,0.194c-0.582,0.358-0.75,1.132-0.381,1.698l5.684,9.031c-10.529,4.992-17.717,14.574-17.859,25.66
					c-0.009,0.682,0.025,1.354,0.076,2.02l69.159,0.897c0.067-0.668,0.113-1.337,0.123-2.019
					c0.143-11.088-6.797-20.852-17.189-26.113l5.914-8.882c0.383-0.556,0.23-1.333-0.338-1.707
					c-0.209-0.143-0.449-0.212-0.688-0.212c-0.396,0-0.789,0.191-1.023,0.549l-6.133,9.187c-4.487-1.907-9.51-3.012-14.835-3.079
					c-0.179-0.002-0.358-0.003-0.538-0.003c-5.128,0-9.979,0.969-14.38,2.697l-5.881-9.344
					C58.597,21.07,58.195,20.866,57.785,20.866L57.785,20.866z M63.382,47.835c-0.016,0-0.031,0-0.046,0
					c-1.839-0.023-3.311-1.521-3.287-3.366c0.022-1.828,1.511-3.275,3.327-3.275c0.016,0,0.031,0,0.046,0
					c1.849,0.024,3.311,1.518,3.288,3.363C66.687,46.385,65.2,47.835,63.382,47.835L63.382,47.835z M95.443,48.252
					c-0.016,0-0.028,0-0.043,0c-1.843-0.025-3.311-1.522-3.287-3.366c0.023-1.828,1.504-3.275,3.328-3.275c0.016,0,0.029,0,0.045,0
					c1.845,0.023,3.303,1.518,3.28,3.362C98.742,46.803,97.268,48.252,95.443,48.252L95.443,48.252z"/>
			</g>
			<g>
				<path fill="#FA7D00" d="M124.547,66.148h0.045l0.311,0.004c0.986,0.012,1.91,0.413,2.607,1.127
					c0.695,0.713,1.07,1.646,1.057,2.626l-0.418,32.372c-0.026,2.023-1.691,3.669-3.709,3.669h-0.045l-0.316-0.004
					c-0.984-0.013-1.912-0.413-2.609-1.128c-0.697-0.714-1.074-1.648-1.061-2.633l0.419-32.376
					C120.855,67.788,122.521,66.148,124.547,66.148 M124.547,62.417c-4.057,0-7.395,3.289-7.449,7.339l-0.42,32.377
					c-0.055,4.103,3.26,7.486,7.352,7.541l0.311,0.004c0.033,0.001,0.066,0.001,0.1,0.001c4.057,0,7.385-3.292,7.438-7.35
					l0.417-32.374c0.055-4.084-3.246-7.48-7.346-7.531l-0.307-0.006C124.611,62.417,124.578,62.417,124.547,62.417L124.547,62.417z"
					/>
			</g>
		</g>
	</g>
</g>
</svg>
