<?xml version="1.0" encoding="utf-8"?>
<!-- Generator: Adobe Illustrator 16.0.3, SVG Export Plug-In . SVG Version: 6.00 Build 0)  -->
<!DOCTYPE svg PUBLIC "-//W3C//DTD SVG 1.1//EN" "http://www.w3.org/Graphics/SVG/1.1/DTD/svg11.dtd">
<svg version="1.1" id="Warstwa_1" xmlns="http://www.w3.org/2000/svg" xmlns:xlink="http://www.w3.org/1999/xlink" x="0px" y="0px"
	 width="140px" height="147px" viewBox="0 0 140 147" enable-background="new 0 0 140 147" xml:space="preserve">
<g id="XMLID_31_">
	<g id="XMLID_33_">
		<path fill="#FA7D00" d="M82.817,117.593c-3.183,0-5.359-0.976-7.28-1.835c-1.841-0.826-3.559-1.597-6.307-1.632l-0.213-0.001
			c-2.789,0-4.579,0.735-6.475,1.516c-1.845,0.762-3.938,1.626-6.834,1.703c-0.071,0.004-0.177,0.006-0.283,0.006h-0.1
			c-6.284-0.082-10.503-5.594-14.625-11.726c-8.024-11.908-12.429-31.515-4.784-44.392c4.139-6.982,11.553-11.332,19.348-11.348
			l0.22,0c3.448,0.045,6.514,1.31,9.219,2.425c1.679,0.691,3.265,1.345,4.219,1.356l0,0c0.84,0,2.487-0.625,4.081-1.23
			c2.881-1.092,6.449-2.447,10.305-2.447l0.212,0.001c0.492,0.007,0.991,0.038,1.484,0.092c3.343,0.193,11.56,1.512,16.854,9.477
			c0.362,0.533,0.491,1.219,0.344,1.865c-0.13,0.608-0.521,1.169-1.068,1.515l-0.107,0.065c-1.312,0.788-7.886,5.162-7.912,13.556
			c-0.043,10.337,8.364,14.223,9.388,14.657c0.048,0.018,0.094,0.037,0.139,0.059c1.096,0.522,1.626,1.756,1.263,2.9l-0.005,0.021
			c-0.01,0.034-0.019,0.066-0.029,0.1c-0.639,1.95-2.519,7.048-6.185,12.26c-3.455,4.905-7.747,10.998-14.772,11.036H82.817z
			 M69.018,110.675l0.258,0.001c3.463,0.046,5.688,1.044,7.652,1.926c1.781,0.797,3.445,1.542,5.89,1.542l0.075-0.001
			c5.249-0.027,8.663-4.875,11.966-9.563c2.992-4.253,4.697-8.411,5.467-10.579c-2.79-1.423-10.706-6.434-10.66-17.453
			c0.028-8.954,6.118-14.133,8.715-15.935c-4.467-5.945-10.948-6.941-13.614-7.088c-0.033-0.002-0.066-0.005-0.098-0.008
			c-0.397-0.045-0.799-0.07-1.193-0.076l-0.166-0.001c-3.223,0-6.464,1.23-9.068,2.218c-2.068,0.785-3.846,1.458-5.295,1.458
			c-1.679-0.02-3.476-0.759-5.556-1.616c-2.419-0.998-5.161-2.129-7.927-2.165H55.38l-0.069-1.726l-0.024,1.725
			c-6.6,0.014-12.88,3.715-16.403,9.659c-6.921,11.658-2.754,29.673,4.68,40.705c3.591,5.344,7.196,10.143,11.811,10.202
			l0.206-0.003c2.297-0.062,3.925-0.733,5.648-1.445C63.254,111.618,65.547,110.675,69.018,110.675z"/>
	</g>
	<g id="XMLID_32_">
		<path fill="#FA7D00" d="M69.278,48.849C69.278,48.849,69.278,48.849,69.278,48.849l-0.175-0.001
			c-0.392-0.003-0.736-0.022-1.049-0.055c-1.097-0.091-2.02-0.983-2.155-2.117c-0.682-5.743,2.216-11.333,5.155-14.648
			c3.453-3.943,9.224-6.796,14.024-6.932c0.001,0,0.001,0,0.001,0c1.317,0,2.351,0.938,2.472,2.182
			c0.491,5.064-1.394,10.66-5.041,14.969C79.048,46.32,73.978,48.849,69.278,48.849z M69.257,45.399h0.021
			c3.716,0,7.779-2.063,10.603-5.384c2.811-3.32,4.377-7.512,4.297-11.397c-3.644,0.44-7.939,2.726-10.535,5.69
			C71.347,36.898,69.082,41.089,69.257,45.399z"/>
	</g>
</g>
</svg>
