<?xml version="1.0" encoding="utf-8"?>
<!-- Generator: Adobe Illustrator 16.0.0, SVG Export Plug-In . SVG Version: 6.00 Build 0)  -->
<!DOCTYPE svg PUBLIC "-//W3C//DTD SVG 1.1//EN" "http://www.w3.org/Graphics/SVG/1.1/DTD/svg11.dtd">
<svg version="1.1" id="Warstwa_1" xmlns="http://www.w3.org/2000/svg" xmlns:xlink="http://www.w3.org/1999/xlink" x="0px" y="0px"
	 width="201px" height="172.457px" viewBox="0 0 201 172.457" enable-background="new 0 0 201 172.457" xml:space="preserve">
<g>
	<g>
		<g>
			<path fill="#FA7D00" stroke="#FA7D00" stroke-width="1.4173" stroke-miterlimit="10" d="M164.281,8.918H36.719
				c-7.817,0-14.174,6.355-14.174,14.174v127.564c0,7.815,6.356,14.174,14.174,14.174h127.563c7.817,0,14.174-6.357,14.174-14.174
				V23.092C178.455,15.273,172.1,8.918,164.281,8.918z M171.368,150.654c0,3.906-3.181,7.086-7.087,7.086H36.719
				c-3.907,0-7.087-3.18-7.087-7.086V44.352h141.736V150.654z M171.368,37.266H29.632V23.092c0-3.906,3.18-7.088,7.086-7.088
				h127.563c3.906,0,7.087,3.182,7.087,7.088V37.266L171.368,37.266z"/>
			<circle fill="#FA7D00" stroke="#FA7D00" stroke-width="1.4173" stroke-miterlimit="10" cx="40.262" cy="26.635" r="3.543"/>
			<circle fill="#FA7D00" stroke="#FA7D00" stroke-width="1.4173" stroke-miterlimit="10" cx="54.436" cy="26.635" r="3.543"/>
			<circle fill="#FA7D00" stroke="#FA7D00" stroke-width="1.4173" stroke-miterlimit="10" cx="68.609" cy="26.635" r="3.543"/>
			<path fill="#FA7D00" stroke="#FA7D00" stroke-width="1.4173" stroke-miterlimit="10" d="M47.349,122.307h70.868
				c1.959,0,3.545-1.584,3.545-3.543V62.068c0-1.959-1.586-3.543-3.545-3.543H47.349c-1.959,0-3.543,1.584-3.543,3.543v56.695
				C43.806,120.723,45.39,122.307,47.349,122.307z M50.892,65.613h63.782v49.607H50.892V65.613z"/>
			<path fill="#FA7D00" stroke="#FA7D00" stroke-width="1.4173" stroke-miterlimit="10" d="M68.609,72.699
				c-5.862,0-10.63,4.768-10.63,10.631v21.259c0,1.959,1.584,3.543,3.543,3.543s3.544-1.584,3.544-3.543v-3.543h7.087v3.543
				c0,1.959,1.584,3.543,3.543,3.543s3.544-1.584,3.544-3.543V83.33C79.239,77.467,74.472,72.699,68.609,72.699z M72.153,93.958
				h-7.088V83.33c0-1.955,1.589-3.545,3.544-3.545c1.956,0,3.544,1.59,3.544,3.545V93.958L72.153,93.958z"/>
			<path fill="#FA7D00" stroke="#FA7D00" stroke-width="1.4173" stroke-miterlimit="10" d="M96.956,72.699H89.87
				c-1.959,0-3.544,1.584-3.544,3.543v28.347c0,1.959,1.585,3.543,3.544,3.543h7.086c5.862,0,10.631-4.768,10.631-10.629V83.33
				C107.587,77.467,102.818,72.699,96.956,72.699z M100.5,97.503c0,1.955-1.588,3.543-3.544,3.543h-3.543V79.787h3.543
				c1.955,0,3.544,1.588,3.544,3.543V97.503z"/>
			<path fill="#FA7D00" stroke="#FA7D00" stroke-width="1.4173" stroke-miterlimit="10" d="M47.349,143.566h106.303
				c1.957,0,3.543-1.584,3.543-3.543s-1.586-3.543-3.543-3.543H47.349c-1.959,0-3.543,1.586-3.543,3.543
				C43.806,141.982,45.39,143.566,47.349,143.566z"/>
			<path fill="#FA7D00" stroke="#FA7D00" stroke-width="1.4173" stroke-miterlimit="10" d="M132.391,79.785h21.262
				c1.957,0,3.543-1.584,3.543-3.543s-1.586-3.543-3.543-3.543h-21.262c-1.959,0-3.543,1.584-3.543,3.543
				S130.432,79.785,132.391,79.785z"/>
			<path fill="#FA7D00" stroke="#FA7D00" stroke-width="1.4173" stroke-miterlimit="10" d="M132.391,101.046h21.262
				c1.957,0,3.543-1.586,3.543-3.545c0-1.957-1.586-3.543-3.543-3.543h-21.262c-1.959,0-3.543,1.586-3.543,3.545
				C128.848,99.46,130.432,101.046,132.391,101.046z"/>
			<path fill="#FA7D00" stroke="#FA7D00" stroke-width="1.4173" stroke-miterlimit="10" d="M132.391,122.307h21.262
				c1.957,0,3.543-1.584,3.543-3.543s-1.586-3.543-3.543-3.543h-21.262c-1.959,0-3.543,1.584-3.543,3.543
				S130.432,122.307,132.391,122.307z"/>
		</g>
	</g>
</g>
</svg>
