<?xml version="1.0" encoding="utf-8"?>
<!-- Generator: Adobe Illustrator 16.0.0, SVG Export Plug-In . SVG Version: 6.00 Build 0)  -->
<!DOCTYPE svg PUBLIC "-//W3C//DTD SVG 1.1//EN" "http://www.w3.org/Graphics/SVG/1.1/DTD/svg11.dtd">
<svg version="1.1" id="Warstwa_1" xmlns="http://www.w3.org/2000/svg" xmlns:xlink="http://www.w3.org/1999/xlink" x="0px" y="0px"
	 width="201px" height="172.457px" viewBox="0 0 201 172.457" enable-background="new 0 0 201 172.457" xml:space="preserve">
<g transform="translate(0 -1)">
	<g>
		<path fill="#FA7D00" stroke="#FA7D00" stroke-width="1.4173" stroke-miterlimit="10" d="M116.35,117.686
			c1.437,0,2.601-1.164,2.601-2.599v-7.795h2.598c1.437,0,2.601-1.164,2.601-2.6v-7.795h51.969c1.436,0,2.6-1.162,2.6-2.598V16.346
			c0-1.436-1.164-2.598-2.6-2.598h-10.393V8.549c0-1.436-1.164-2.598-2.601-2.598h-20.787c-1.437,0-2.601,1.164-2.601,2.598v5.197
			h-25.983V8.549c0-1.436-1.164-2.598-2.599-2.598H90.366c-1.436,0-2.599,1.164-2.599,2.598v5.197H61.782V8.549
			c0-1.436-1.162-2.598-2.598-2.598H38.395c-1.435,0-2.598,1.164-2.598,2.598v5.197H25.403c-1.436,0-2.598,1.164-2.598,2.6V94.3
			c0,1.435,1.162,2.599,2.598,2.599h51.971v7.795c0,1.437,1.162,2.599,2.598,2.599h2.599v7.797c0,1.434,1.163,2.598,2.599,2.598
			h7.795v38.979H25.403c-1.436,0-2.598,1.162-2.598,2.599s1.162,2.598,2.598,2.598h150.712c1.436,0,2.6-1.161,2.6-2.598
			s-1.164-2.599-2.6-2.599h-67.561v-38.979L116.35,117.686L116.35,117.686z M144.934,11.148h15.592v5.197v5.195h-15.592v-5.195
			V11.148z M92.963,11.148h15.592v5.197v5.195H92.963v-5.195V11.148z M40.994,11.148h15.591v5.197v5.195H40.994v-5.195V11.148z
			 M28.001,18.943h7.796v5.197l0,0c0,1.436,1.163,2.6,2.598,2.6h20.789c1.435,0,2.598-1.164,2.598-2.6l0,0v-5.197h25.984v5.197l0,0
			c0,1.436,1.164,2.6,2.6,2.6h20.788c1.435,0,2.599-1.164,2.599-2.6l0,0v-5.197h25.983v5.197l0,0c0,1.436,1.164,2.6,2.601,2.6
			h20.787c1.437,0,2.599-1.164,2.599-2.6l0,0v-5.197h7.797v72.758h-51.961c-0.002,0-0.006,0-0.011,0H79.971c-0.004,0-0.007,0-0.01,0
			h-51.96V18.943z M118.949,96.898v5.197h-2.6H85.168H82.57v-5.197H118.949z M87.766,107.292h25.986v5.195h-7.795H95.562h-7.796
			V107.292z M103.357,156.664H98.16v-38.979h5.197V156.664z"/>
	</g>
</g>
</svg>
