<?xml version="1.0" encoding="utf-8"?>
<!-- Generator: Adobe Illustrator 16.0.3, SVG Export Plug-In . SVG Version: 6.00 Build 0)  -->
<!DOCTYPE svg PUBLIC "-//W3C//DTD SVG 1.1//EN" "http://www.w3.org/Graphics/SVG/1.1/DTD/svg11.dtd">
<svg version="1.1" id="Warstwa_1" xmlns="http://www.w3.org/2000/svg" xmlns:xlink="http://www.w3.org/1999/xlink" x="0px" y="0px"
	 width="306px" height="177.123px" viewBox="0 0 306 177.123" enable-background="new 0 0 306 177.123" xml:space="preserve">
<g>
	<g>
		<path fill="#FA7D00" d="M188.283,119.205h-62.196c-1.503,0-2.722-1.22-2.722-2.722s1.219-2.719,2.722-2.719h62.194
			c1.504,0,2.723,1.217,2.723,2.719S189.787,119.205,188.283,119.205z"/>
		<path fill="#FA7D00" d="M111.288,134.009c-9.664,0-17.526-7.855-17.526-17.523s7.858-17.524,17.526-17.524
			c9.67,0,17.526,7.856,17.526,17.524S120.952,134.009,111.288,134.009z M111.288,104.401c-6.666,0-12.085,5.418-12.085,12.082
			c0,6.666,5.419,12.084,12.085,12.084c6.667,0,12.086-5.42,12.086-12.084C123.373,109.817,117.954,104.401,111.288,104.401z"/>
		<path fill="#FA7D00" d="M203.088,134.009c-9.663,0-17.525-7.855-17.525-17.523s7.857-17.524,17.525-17.524
			c9.669,0,17.523,7.856,17.523,17.524S212.751,134.009,203.088,134.009z M203.088,104.401c-6.668,0-12.084,5.418-12.084,12.082
			c0,6.666,5.419,12.084,12.084,12.084c6.667,0,12.085-5.42,12.085-12.084C215.175,109.817,209.755,104.401,203.088,104.401z"/>
	</g>
	<path fill="#FA7D00" d="M188.305,119.205h-62.206c-1.502,0-2.722-1.22-2.722-2.722s1.219-2.719,2.722-2.719h62.209
		c1.504,0,2.726,1.217,2.726,2.719S189.813,119.205,188.305,119.205z"/>
	<path fill="#FA7D00" d="M230.958,119.205h-13.08c-1.5,0-2.721-1.22-2.721-2.722s1.221-2.719,2.721-2.719h13.08
		c3.369,0,6.187-2.418,6.703-5.748l2.569-16.416c0.289-1.855-0.179-3.696-1.323-5.186c-1.138-1.482-2.798-2.412-4.652-2.613
		l-39.507-4.282c-0.541-0.06-1.047-0.278-1.459-0.62L160.33,51.2c-2.033-1.708-4.625-2.65-7.28-2.65H98.773
		c-2.488,0-4.805,1.225-6.214,3.275l-19.74,28.779c-0.985,1.437-1.377,3.168-1.104,4.888l3.515,22.53
		c0.522,3.326,3.342,5.746,6.71,5.746h14.517c1.501,0,2.72,1.221,2.72,2.721c0,1.502-1.219,2.721-2.72,2.721H81.942
		c-6.066,0-11.154-4.354-12.09-10.343l-3.516-22.533c-0.484-3.089,0.223-6.224,1.997-8.809l19.74-28.779
		c2.416-3.526,6.422-5.632,10.699-5.632h54.283c3.938,0,7.764,1.393,10.774,3.929l32.319,27.168l38.684,4.195
		c3.357,0.359,6.332,2.036,8.393,4.712c2.051,2.678,2.896,5.996,2.381,9.338l-2.567,16.417
		C242.105,114.851,237.025,119.205,230.958,119.205z"/>
	<path fill="#FA7D00" d="M171.021,81.638H92.296c-1.5,0-2.719-1.219-2.719-2.719c0-1.502,1.219-2.721,2.719-2.721h78.726
		c1.502,0,2.723,1.219,2.723,2.721C173.744,80.42,172.523,81.638,171.021,81.638z"/>
</g>
</svg>
