<?xml version="1.0" encoding="utf-8"?>
<!-- Generator: Adobe Illustrator 16.0.0, SVG Export Plug-In . SVG Version: 6.00 Build 0)  -->
<!DOCTYPE svg PUBLIC "-//W3C//DTD SVG 1.1//EN" "http://www.w3.org/Graphics/SVG/1.1/DTD/svg11.dtd">
<svg version="1.1" id="Warstwa_1" xmlns="http://www.w3.org/2000/svg" xmlns:xlink="http://www.w3.org/1999/xlink" x="0px" y="0px"
	 width="201px" height="155.91px" viewBox="0 0 201 155.91" enable-background="new 0 0 201 155.91" xml:space="preserve">
<g>
	<g>
		<g>
			<path fill="#FA7D00" d="M151.206,49.785c3.262,0,5.634-3.553,5.634-8.45c0-4.896-2.372-8.451-5.634-8.451
				c-3.263,0-5.634,3.555-5.634,8.451S147.943,49.785,151.206,49.785z"/>
			<path fill="#FA7D00" d="M158.908,63.871c5.482-4.146,9.199-12.532,9.199-22.537c0-14.216-7.424-25.353-16.901-25.353H49.795
				c-9.48,0-16.902,11.137-16.902,25.353c0,10.005,3.718,18.391,9.199,22.537c-5.481,4.145-9.199,12.53-9.199,22.535
				c0,10.994,4.559,20.378,11.269,23.861v18.399c0,6.209,5.056,11.263,11.268,11.263h42.255c0.747,0,1.463-0.3,1.991-0.826
				l22.536-22.537c0.528-0.528,0.825-1.242,0.825-1.99v-2.816h28.17c9.479,0,16.9-11.137,16.9-25.354
				C168.107,76.401,164.391,68.016,158.908,63.871z M151.206,21.616c6.106,0,11.269,9.031,11.269,19.718
				s-5.162,19.719-11.269,19.719s-11.269-9.032-11.269-19.719S145.1,21.616,151.206,21.616z M38.526,41.334
				c0-10.687,5.161-19.72,11.269-19.72h90.793c-3.824,4.611-6.283,11.622-6.283,19.72c0,8.099,2.459,15.109,6.283,19.719H49.795
				C43.688,61.053,38.526,52.021,38.526,41.334z M44.161,103.316v0.052c-3.374-3.515-5.635-9.962-5.635-16.962
				c0-10.688,5.161-19.718,11.269-19.718h2.94C49.16,72.603,44.161,84.254,44.161,103.316z M100.5,130.313v-7.285
				c0-3.105,2.525-5.635,5.634-5.635h7.284L100.5,130.313z M117.4,103.309v8.451h-11.268c-6.212,0-11.269,5.055-11.269,11.268
				v11.269H55.429c-3.109,0-5.634-2.521-5.634-5.625v-25.354c0-22.457,7.439-33.676,9.756-36.627h65.465
				C121.445,72.15,117.4,82.82,117.4,103.309z M123.035,106.122v-2.813c0-27.298,7.511-35.129,9.316-36.621h8.235
				c-3.825,4.609-6.284,11.62-6.284,19.718c0,8.098,2.459,15.107,6.283,19.719L123.035,106.122z M151.206,106.125
				c-6.106,0-11.269-9.03-11.269-19.719c0-10.689,5.16-19.718,11.269-19.718c6.106,0,11.269,9.03,11.269,19.718
				C162.475,97.094,157.313,106.125,151.206,106.125z"/>
			<path fill="#FA7D00" d="M151.206,77.955c-3.263,0-5.634,3.555-5.634,8.452s2.371,8.45,5.634,8.45c3.262,0,5.634-3.555,5.634-8.45
				C156.84,81.511,154.468,77.955,151.206,77.955z"/>
		</g>
	</g>
</g>
</svg>
