<?xml version="1.0" encoding="utf-8"?>
<!-- Generator: Adobe Illustrator 16.0.3, SVG Export Plug-In . SVG Version: 6.00 Build 0)  -->
<!DOCTYPE svg PUBLIC "-//W3C//DTD SVG 1.1//EN" "http://www.w3.org/Graphics/SVG/1.1/DTD/svg11.dtd">
<svg version="1.1" id="Warstwa_1" xmlns="http://www.w3.org/2000/svg" xmlns:xlink="http://www.w3.org/1999/xlink" x="0px" y="0px"
	 width="156.107px" height="157.91px" viewBox="0 0 156.107 157.91" enable-background="new 0 0 156.107 157.91"
	 xml:space="preserve">
<g>
	<g>
		<g>
			<path fill="#FA7D00" stroke="#FA7D00" stroke-width="1.4173" stroke-miterlimit="10" d="M125.889,20.489H30.218
				c-5.863,0-10.63,4.766-10.63,10.63v95.672c0,5.862,4.766,10.632,10.631,10.632h95.672c5.862,0,10.63-4.767,10.63-10.632V31.119
				C136.52,25.255,131.753,20.489,125.889,20.489z M131.205,126.791c0,2.93-2.385,5.314-5.315,5.314H30.218
				c-2.931,0-5.315-2.385-5.315-5.314V47.064h106.301L131.205,126.791L131.205,126.791z M131.205,41.75H24.903V31.119
				c0-2.929,2.385-5.316,5.314-5.316h95.672c2.93,0,5.315,2.387,5.315,5.316V41.75L131.205,41.75z"/>
			<circle fill="#FA7D00" stroke="#FA7D00" stroke-width="1.4173" stroke-miterlimit="10" cx="32.875" cy="33.777" r="2.657"/>
			<circle fill="#FA7D00" stroke="#FA7D00" stroke-width="1.4173" stroke-miterlimit="10" cx="43.505" cy="33.777" r="2.657"/>
			<circle fill="#FA7D00" stroke="#FA7D00" stroke-width="1.4173" stroke-miterlimit="10" cx="54.135" cy="33.777" r="2.657"/>
		</g>
	</g>
</g>
<g>
	<g>
		<path fill="#FA7D00" stroke="#FA7D00" stroke-width="1.2911" stroke-miterlimit="10" d="M102.525,115.368L98.38,69.772
			c-0.208-2.288-2.098-4.013-4.395-4.013h-7.182v-2.426c0-4.947-4.027-8.972-8.976-8.972c-4.947,0-8.972,4.025-8.972,8.972v2.426
			h-7.184c-2.297,0-4.187,1.725-4.394,4.013l-4.146,45.596c-0.109,1.231,0.304,2.464,1.137,3.376
			c0.834,0.914,2.022,1.438,3.26,1.438h40.604c1.237,0,2.424-0.523,3.26-1.438C102.221,117.832,102.636,116.6,102.525,115.368z
			 M77.828,58.625c2.596,0,4.706,2.111,4.706,4.707v2.426h-9.413v-2.426l0,0C73.121,60.737,75.232,58.625,77.828,58.625z
			 M98.238,115.867c-0.043,0.049-0.09,0.049-0.108,0.049H57.525c-0.018,0-0.064,0-0.108-0.049c-0.043-0.048-0.041-0.095-0.037-0.112
			l4.143-45.595c0.007-0.077,0.072-0.133,0.146-0.133h7.184v4.705c0,1.179,0.955,2.134,2.133,2.134c1.179,0,2.133-0.955,2.133-2.134
			v-4.705h9.415v4.705c0,1.179,0.953,2.134,2.133,2.134s2.136-0.955,2.136-2.134v-4.705h7.182l0,0c0.077,0,0.141,0.057,0.146,0.133
			l4.146,45.595C98.278,115.772,98.282,115.819,98.238,115.867z"/>
	</g>
</g>
</svg>
