<?xml version="1.0" encoding="utf-8"?>
<!-- Generator: Adobe Illustrator 16.0.0, SVG Export Plug-In . SVG Version: 6.00 Build 0)  -->
<!DOCTYPE svg PUBLIC "-//W3C//DTD SVG 1.1//EN" "http://www.w3.org/Graphics/SVG/1.1/DTD/svg11.dtd">
<svg version="1.1" id="Warstwa_1" xmlns="http://www.w3.org/2000/svg" xmlns:xlink="http://www.w3.org/1999/xlink" x="0px" y="0px"
	 width="201px" height="155.91px" viewBox="0 0 201 155.91" enable-background="new 0 0 201 155.91" xml:space="preserve">
<g>
	<g>
		<g>
			<path fill="#FA7D00" d="M125.045,34.605l-13.874-19.269c-0.534-0.745-1.396-1.185-2.31-1.185c-0.918,0-1.774,0.439-2.311,1.185
				L92.677,34.605c-0.35,0.486-0.538,1.066-0.538,1.663v0.455v92.341c0,5.871,4.778,10.648,10.647,10.648h12.149
				c5.869,0,10.646-4.777,10.646-10.648v-92.34v-0.455C125.583,35.672,125.395,35.092,125.045,34.605z M108.861,21.868l8.647,12.01
				h-17.296L108.861,21.868z M97.832,39.567h13.509v73.703h-4.961V58.92c0.001-1.573-1.272-2.846-2.847-2.846
				c-1.571,0-2.845,1.273-2.845,2.846v54.352h-2.856V39.567z M119.893,129.064c0,2.73-2.224,4.955-4.957,4.955h-12.148
				c-2.731,0-4.954-2.225-4.954-4.955v-10.104h22.06V129.064L119.893,129.064z M119.893,113.271h-2.858V39.567h2.858V113.271z"/>
		</g>
	</g>
	<g>
		<g>
			<path fill="#FA7D00" d="M106.322,46.935c-0.036-0.179-0.09-0.355-0.159-0.529c-0.072-0.173-0.16-0.336-0.263-0.489
				c-0.104-0.157-0.225-0.304-0.354-0.434c-0.132-0.131-0.275-0.252-0.434-0.355c-0.153-0.103-0.318-0.188-0.492-0.258
				c-0.17-0.072-0.35-0.129-0.531-0.167c-0.367-0.071-0.747-0.071-1.113,0c-0.179,0.038-0.358,0.095-0.533,0.167
				c-0.168,0.069-0.332,0.155-0.489,0.258c-0.155,0.104-0.302,0.225-0.433,0.355c-0.129,0.13-0.248,0.276-0.354,0.434
				c-0.104,0.153-0.189,0.316-0.263,0.489c-0.07,0.174-0.125,0.351-0.162,0.529c-0.036,0.188-0.055,0.377-0.055,0.561
				c0,0.745,0.304,1.479,0.835,2.01c0.527,0.528,1.263,0.835,2.01,0.835c0.188,0,0.376-0.021,0.558-0.057
				c0.183-0.038,0.361-0.091,0.531-0.163c0.174-0.07,0.339-0.157,0.493-0.263c0.156-0.101,0.301-0.222,0.433-0.353
				c0.13-0.13,0.248-0.273,0.353-0.433c0.104-0.152,0.19-0.316,0.264-0.493c0.07-0.168,0.123-0.348,0.16-0.529
				c0.037-0.184,0.058-0.371,0.058-0.555C106.381,47.312,106.361,47.123,106.322,46.935z"/>
		</g>
	</g>
	<g>
		<g>
			<path fill="#FA7D00" d="M54.436,67.443l-0.002-0.432c0-2.243,1.825-4.068,4.066-4.068c0.041,0,0.081,0,0.122-0.003l8.667-0.366
				c5.063-0.035,9.168-4.164,9.168-9.234c0-5.091-4.141-9.233-9.233-9.233H47.857c-1.953,0-3.543-1.589-3.543-3.542
				c0-0.945,0.372-1.834,1.049-2.501c0.65-0.64,1.498-0.988,2.395-0.988c0.033,0,0.067,0,0.1,0h16.944
				c6.318,0,11.461-5.143,11.461-11.461c0-6.32-5.143-11.463-11.461-11.463H45.526c-1.57,0-2.846,1.273-2.846,2.846
				c0,1.573,1.275,2.846,2.846,2.846h19.275c3.181,0,5.771,2.588,5.771,5.771c0,3.183-2.59,5.77-5.771,5.77l-16.924,0.003
				c-2.438-0.037-4.755,0.896-6.506,2.621c-1.772,1.747-2.747,4.072-2.747,6.557c0,5.092,4.142,9.233,9.232,9.233h19.366
				c1.953,0,3.544,1.59,3.544,3.542c0,1.955-1.591,3.542-3.544,3.542c-0.043,0-0.081,0-0.121,0.003l-8.667,0.37
				c-5.351,0.032-9.692,4.396-9.692,9.76l0.001,0.431C36.386,68.866,26.755,79.389,26.755,92.12v22.806
				c0,13.693,11.144,24.834,24.839,24.834c13.694,0,24.838-11.141,24.838-24.834V92.119C76.433,79.383,66.798,68.857,54.436,67.443z
				 M32.448,92.119c0-9.594,7.087-17.557,16.301-18.938v23.211H32.448V92.119z M70.74,114.925c0,10.556-8.588,19.144-19.146,19.144
				c-10.556,0-19.146-8.588-19.146-19.144v-12.842H70.74V114.925z M70.74,96.395H54.439V73.182
				c9.214,1.381,16.301,9.345,16.301,18.938V96.395z"/>
		</g>
	</g>
	<g>
		<g>
			<path fill="#FA7D00" d="M37.359,16.441c-0.037-0.181-0.091-0.359-0.16-0.533c-0.073-0.171-0.161-0.336-0.265-0.49
				c-0.101-0.157-0.219-0.301-0.352-0.432c-0.529-0.528-1.264-0.834-2.011-0.834c-0.75,0-1.482,0.306-2.011,0.834
				c-0.133,0.131-0.252,0.274-0.354,0.432c-0.105,0.154-0.19,0.319-0.263,0.49c-0.071,0.174-0.127,0.353-0.165,0.533
				c-0.036,0.183-0.053,0.372-0.053,0.556c0,0.188,0.017,0.374,0.053,0.556c0.037,0.182,0.094,0.362,0.165,0.533
				c0.07,0.174,0.156,0.337,0.262,0.491c0.104,0.156,0.223,0.304,0.353,0.433c0.131,0.131,0.276,0.253,0.434,0.353
				c0.154,0.104,0.319,0.191,0.49,0.263c0.174,0.07,0.351,0.127,0.534,0.16c0.182,0.038,0.371,0.058,0.556,0.058
				c0.747,0,1.481-0.304,2.011-0.833c0.133-0.128,0.251-0.276,0.352-0.433c0.104-0.154,0.191-0.317,0.265-0.491
				c0.069-0.171,0.123-0.352,0.16-0.533c0.036-0.182,0.058-0.368,0.058-0.556C37.417,16.813,37.396,16.625,37.359,16.441z"/>
		</g>
	</g>
	<g>
		<g>
			<path fill="#FA7D00" d="M172.428,42.546c-0.314-6.716-3.697-10.042-6.414-12.709c-2.943-2.889-4.718-4.633-3.041-10.35
				c0.76-2.588-0.285-3.947-0.978-4.525c-0.86-0.721-2.394-1.33-4.824-0.124c-3.149,1.558-7.926,6.14-11.621,11.143
				c-3.392,4.591-7.368,11.47-7.057,18.152c0.233,4.999,2.354,9.582,5.813,12.805c-1.711,2.307-2.724,5.16-2.724,8.245
				c0,1.959,0.397,3.823,1.124,5.518v55.607c0,6.767,5.508,12.273,12.275,12.273c6.766,0,12.272-5.508,12.272-12.273v-53.77
				c1.327-2.14,2.084-4.659,2.084-7.356c0-3.05-0.991-5.869-2.661-8.159C170.538,53.439,172.689,48.158,172.428,42.546z
				 M161.564,126.309c0,3.629-2.953,6.582-6.582,6.582c-3.633,0-6.584-2.953-6.584-6.582V77.148c1.479,0.867,3.14,1.475,4.936,1.752
				c0.141,0.021,0.287,0.033,0.432,0.033h3.396c0.144,0,0.29-0.012,0.433-0.033c0.188-0.029,0.374-0.064,0.563-0.103
				c0.117-0.021,0.232-0.049,0.353-0.073c0.052-0.013,0.103-0.021,0.15-0.035c1.024-0.237,1.995-0.585,2.907-1.026v48.646H161.564z
				 M159.309,72.406c-0.011,0.006-0.021,0.013-0.035,0.019c-0.084,0.044-0.162,0.085-0.248,0.125
				c-0.039,0.02-0.08,0.039-0.121,0.058c-0.063,0.029-0.127,0.06-0.189,0.086c-0.063,0.027-0.121,0.052-0.184,0.077
				c-0.049,0.021-0.1,0.04-0.149,0.062c-0.075,0.029-0.153,0.057-0.229,0.084c-0.041,0.013-0.078,0.027-0.118,0.041
				c-0.087,0.028-0.175,0.056-0.261,0.081c-0.035,0.011-0.067,0.02-0.102,0.031c-0.097,0.027-0.193,0.052-0.291,0.072
				c-0.027,0.008-0.052,0.016-0.078,0.021c-0.125,0.029-0.25,0.057-0.378,0.078h-2.921c0,0-0.008-0.002-0.01-0.003
				c-0.137-0.022-0.273-0.052-0.409-0.085c-0.053-0.016-0.108-0.028-0.161-0.04c-0.08-0.022-0.16-0.044-0.238-0.067
				c-0.068-0.019-0.137-0.039-0.199-0.061c-0.055-0.014-0.104-0.032-0.153-0.049c-3.246-1.112-5.556-4.228-5.556-7.754
				c0-2.639,1.258-4.987,3.199-6.485c0.074-0.06,0.152-0.115,0.229-0.17c0.13-0.093,0.265-0.186,0.397-0.271
				c0.063-0.035,0.121-0.072,0.183-0.11c0.188-0.113,0.382-0.217,0.579-0.314c0.021-0.012,0.039-0.02,0.06-0.03
				c0.116-0.055,0.232-0.108,0.349-0.157c0.021-0.008,0.039-0.016,0.061-0.024c0.203-0.086,0.41-0.162,0.626-0.229
				c0.063-0.02,0.13-0.041,0.196-0.061c0.144-0.042,0.289-0.081,0.438-0.116c0.109-0.024,0.225-0.051,0.338-0.07
				c0.075-0.016,0.153-0.029,0.229-0.041c0.179-0.028,0.358-0.052,0.542-0.069c0.046-0.004,0.098-0.009,0.146-0.012
				c0.205-0.016,0.408-0.024,0.619-0.024c0.209,0,0.418,0.009,0.625,0.027c0.049,0.001,0.098,0.005,0.145,0.009
				c0.184,0.017,0.361,0.041,0.541,0.07c0.08,0.013,0.16,0.029,0.24,0.043c0.113,0.021,0.229,0.047,0.344,0.073
				c0.146,0.037,0.294,0.075,0.438,0.119c0.063,0.017,0.122,0.034,0.182,0.054c0.205,0.065,0.406,0.141,0.6,0.223
				c0.031,0.013,0.061,0.021,0.091,0.033c0.345,0.148,0.679,0.319,0.995,0.509c0.07,0.046,0.139,0.089,0.211,0.132
				c0.128,0.084,0.255,0.171,0.377,0.258c0.086,0.065,0.172,0.128,0.256,0.194c1.911,1.501,3.145,3.83,3.145,6.443
				C163.65,68.251,161.902,71.011,159.309,72.406z M162.438,53.185c-0.063-0.037-0.127-0.065-0.188-0.101
				c-0.147-0.086-0.299-0.165-0.452-0.244c-0.076-0.04-0.152-0.08-0.232-0.119c-0.508-0.251-1.03-0.466-1.569-0.654
				c-0.031-0.009-0.06-0.02-0.091-0.031c-0.27-0.09-0.543-0.175-0.818-0.249l-0.004-0.001c-0.561-0.154-1.135-0.269-1.721-0.349
				c-0.057-0.009-0.108-0.015-0.161-0.022c-0.229-0.027-0.455-0.049-0.685-0.065c-0.07-0.008-0.139-0.014-0.205-0.019
				c-0.283-0.016-0.563-0.026-0.847-0.026c-0.28,0-0.562,0.011-0.837,0.026c-0.066,0.004-0.133,0.011-0.199,0.015
				c-0.229,0.018-0.453,0.042-0.678,0.069c-0.053,0.006-0.105,0.012-0.157,0.019c-0.866,0.117-1.71,0.317-2.521,0.587
				c-0.024,0.008-0.047,0.014-0.07,0.023c-0.257,0.087-0.511,0.184-0.759,0.282c-0.021,0.008-0.042,0.017-0.063,0.024
				c-0.261,0.11-0.518,0.224-0.771,0.347c-0.054,0.028-0.108,0.057-0.162,0.084c-0.177,0.086-0.345,0.176-0.513,0.271
				c-0.049,0.026-0.103,0.052-0.15,0.078c-2.617-2.228-4.23-5.574-4.402-9.261c-0.19-4.08,2.198-9.663,6.56-15.32
				c2.187-2.834,4.293-4.974,5.959-6.429c-0.474,6.08,2.692,9.188,5.325,11.776c2.42,2.377,4.508,4.43,4.721,8.915
				C166.938,46.912,165.314,50.735,162.438,53.185z"/>
		</g>
	</g>
</g>
</svg>
