<?xml version="1.0" encoding="utf-8"?>
<!-- Generator: Adobe Illustrator 16.0.0, SVG Export Plug-In . SVG Version: 6.00 Build 0)  -->
<!DOCTYPE svg PUBLIC "-//W3C//DTD SVG 1.1//EN" "http://www.w3.org/Graphics/SVG/1.1/DTD/svg11.dtd">
<svg version="1.1" id="Warstwa_1" xmlns="http://www.w3.org/2000/svg" xmlns:xlink="http://www.w3.org/1999/xlink" x="0px" y="0px"
	 width="201px" height="155.91px" viewBox="0 0 201 155.91" enable-background="new 0 0 201 155.91" xml:space="preserve">
<g>
	<g>
		<path fill="#FA7D00" d="M99.642,8.854c-36.354,0-65.932,29.58-65.932,65.935c0,36.355,29.578,65.934,65.932,65.934
			c36.358,0,65.936-29.578,65.936-65.934C165.578,38.434,136,8.854,99.642,8.854z M99.642,132.074
			c-31.585,0-57.285-25.698-57.285-57.286s25.7-57.286,57.285-57.286c31.588,0,57.288,25.699,57.288,57.286
			S131.23,132.074,99.642,132.074z"/>
		<path fill="#FA7D00" d="M99.642,38.981c-11.597,0-21.029,9.434-21.029,21.031c0,2.386,1.936,4.323,4.323,4.323
			c2.389,0,4.325-1.937,4.325-4.323c0-6.829,5.554-12.384,12.381-12.384c6.833,0,12.385,5.555,12.385,12.384
			c0,6.829-5.555,12.383-12.385,12.383c-2.387,0-4.323,1.938-4.323,4.324V91.78c0,2.386,1.936,4.323,4.323,4.323
			s4.325-1.938,4.325-4.323V80.591c9.528-1.999,16.708-10.465,16.708-20.581C120.675,48.415,111.24,38.981,99.642,38.981z"/>
		<path fill="#FA7D00" d="M99.646,99.098c-2.996,0-5.429,2.43-5.429,5.428c0,2.996,2.433,5.428,5.429,5.428
			c2.997,0,5.424-2.432,5.424-5.428C105.07,101.527,102.643,99.098,99.646,99.098z"/>
	</g>
</g>
</svg>
