<?xml version="1.0" encoding="utf-8"?>
<!-- Generator: Adobe Illustrator 16.0.0, SVG Export Plug-In . SVG Version: 6.00 Build 0)  -->
<!DOCTYPE svg PUBLIC "-//W3C//DTD SVG 1.1//EN" "http://www.w3.org/Graphics/SVG/1.1/DTD/svg11.dtd">
<svg version="1.1" id="Warstwa_1" xmlns="http://www.w3.org/2000/svg" xmlns:xlink="http://www.w3.org/1999/xlink" x="0px" y="0px"
	 width="201px" height="155.91px" viewBox="0 0 201 155.91" enable-background="new 0 0 201 155.91" xml:space="preserve">
<g>
	<g>
		<path fill="#FA7D00" stroke="#FFFFFF" stroke-width="1.7623" stroke-miterlimit="10" d="M98.804,10.292
			c-35.632,0-64.62,28.989-64.62,64.62c0,35.632,28.988,64.62,64.62,64.62c35.631,0,64.62-28.987,64.62-64.62
			C163.424,39.281,134.436,10.292,98.804,10.292z M77.795,22.799c-3.896,5.311-6.79,11.592-8.86,17.759
			c-3.762-1.349-7.247-2.961-10.375-4.818C63.963,30.19,70.5,25.751,77.795,22.799z M53.088,42.275
			c4.032,2.516,8.592,4.658,13.543,6.392c-1.632,6.899-2.611,14.34-2.873,22.032H42.77C43.556,60.153,47.266,50.409,53.088,42.275z
			 M53.088,107.552c-5.822-8.133-9.532-17.879-10.318-28.425h20.988c0.262,7.691,1.24,15.133,2.872,22.033
			C61.68,102.893,57.121,105.034,53.088,107.552z M58.56,114.084c3.13-1.854,6.613-3.469,10.375-4.816
			c2.07,6.166,4.964,12.449,8.86,17.76C70.5,124.073,63.963,119.635,58.56,114.084z M94.59,130.325
			c-8.704-3.193-14.571-14.636-17.574-23.449c5.513-1.312,11.433-2.118,17.574-2.373V130.325z M94.59,96.068
			c-6.917,0.27-13.615,1.188-19.869,2.707c-1.419-6.141-2.281-12.77-2.532-19.648H94.59V96.068z M94.59,70.699H72.189
			c0.25-6.88,1.112-13.509,2.532-19.649c6.254,1.519,12.952,2.438,19.869,2.707V70.699z M94.59,45.321
			c-6.141-0.253-12.061-1.06-17.574-2.372c3.001-8.807,8.868-20.255,17.574-23.45V45.321z M144.52,42.276
			c5.822,8.132,9.533,17.877,10.318,28.422H133.85c-0.262-7.692-1.24-15.133-2.871-22.032
			C135.93,46.934,140.486,44.791,144.52,42.276z M139.048,35.74c-3.131,1.857-6.612,3.47-10.375,4.818
			c-2.071-6.165-4.964-12.449-8.858-17.757C127.107,25.751,133.645,30.19,139.048,35.74z M103.018,19.5
			c8.705,3.194,14.569,14.636,17.574,23.45c-5.514,1.312-11.435,2.118-17.574,2.372V19.5L103.018,19.5z M103.018,53.756
			c6.918-0.267,13.615-1.188,19.869-2.707c1.42,6.14,2.281,12.769,2.531,19.649h-22.4V53.756z M103.018,79.1h22.4
			c-0.25,6.879-1.111,13.536-2.531,19.676c-6.254-1.52-12.951-2.438-19.869-2.705V79.1z M103.018,130.325v-25.822
			c6.141,0.255,12.062,1.063,17.574,2.373C117.59,115.686,111.725,127.132,103.018,130.325z M119.813,127.025
			c3.896-5.31,6.789-11.592,8.859-17.76c3.764,1.35,7.244,2.963,10.375,4.819C133.645,119.635,127.107,124.073,119.813,127.025z
			 M144.52,107.552c-4.033-2.516-8.59-4.659-13.541-6.392c1.631-6.9,2.608-14.368,2.871-22.061h20.988
			C154.051,89.646,150.342,99.416,144.52,107.552z"/>
	</g>
</g>
</svg>
