<?xml version="1.0" encoding="utf-8"?>
<!-- Generator: Adobe Illustrator 16.0.3, SVG Export Plug-In . SVG Version: 6.00 Build 0)  -->
<!DOCTYPE svg PUBLIC "-//W3C//DTD SVG 1.1//EN" "http://www.w3.org/Graphics/SVG/1.1/DTD/svg11.dtd">
<svg version="1.1" id="Warstwa_1" xmlns="http://www.w3.org/2000/svg" xmlns:xlink="http://www.w3.org/1999/xlink" x="0px" y="0px"
	 width="201px" height="177.123px" viewBox="0 0 201 177.123" enable-background="new 0 0 201 177.123" xml:space="preserve">
<g>
	
		<line fill="none" stroke="#FA7D00" stroke-width="4.5348" stroke-linecap="round" stroke-miterlimit="10" x1="34.282" y1="108.3" x2="101.33" y2="108.3"/>
	<path fill="none" stroke="#FA7D00" stroke-width="4.5348" stroke-linecap="round" stroke-miterlimit="10" d="M90.727,124.206
		H39.271c-4.131,0-7.484-3.354-7.484-7.484v-80.77c0-4.136,3.353-7.486,7.484-7.486h124.118c4.133,0,7.484,3.35,7.484,7.486v51.453"
		/>
	
		<line fill="none" stroke="#FA7D00" stroke-width="4.5348" stroke-linecap="round" stroke-miterlimit="10" x1="86.05" y1="124.206" x2="82.93" y2="145.036"/>
	
		<line fill="none" stroke="#FA7D00" stroke-width="4.5348" stroke-linecap="round" stroke-miterlimit="10" x1="76.695" y1="146.347" x2="90.727" y2="146.347"/>
	
		<line fill="none" stroke="#FA7D00" stroke-width="4.5348" stroke-linecap="round" stroke-miterlimit="10" x1="168.379" y1="108.3" x2="101.33" y2="108.3"/>
	<path fill="none" stroke="#FA7D00" stroke-width="4.5348" stroke-linecap="round" stroke-miterlimit="10" d="M101.33,124.206
		h62.059c4.133,0,7.484-3.354,7.484-7.484v-80.77c0-4.136-3.354-7.486-7.484-7.486H39.271c-4.131,0-7.484,3.35-7.484,7.486v51.453"
		/>
	
		<line fill="none" stroke="#FA7D00" stroke-width="4.5348" stroke-linecap="round" stroke-miterlimit="10" x1="116.611" y1="124.206" x2="119.465" y2="145.036"/>
	
		<line fill="none" stroke="#FA7D00" stroke-width="4.5348" stroke-linecap="round" stroke-miterlimit="10" x1="125.966" y1="146.347" x2="111.934" y2="146.347"/>
	
		<line fill="none" stroke="#FA7D00" stroke-width="4.5348" stroke-linecap="round" stroke-miterlimit="10" x1="101.33" y1="124.206" x2="39.271" y2="124.206"/>
</g>
</svg>
