<?xml version="1.0" encoding="utf-8"?>
<!-- Generator: Adobe Illustrator 16.0.3, SVG Export Plug-In . SVG Version: 6.00 Build 0)  -->
<!DOCTYPE svg PUBLIC "-//W3C//DTD SVG 1.1//EN" "http://www.w3.org/Graphics/SVG/1.1/DTD/svg11.dtd">
<svg version="1.1" id="Warstwa_1" xmlns="http://www.w3.org/2000/svg" xmlns:xlink="http://www.w3.org/1999/xlink" x="0px" y="0px"
	 width="156.107px" height="157.91px" viewBox="0 0 156.107 157.91" enable-background="new 0 0 156.107 157.91"
	 xml:space="preserve">
<g>
	<g>
		<g>
			<path fill="#FA7D00" stroke="#FA7D00" stroke-width="1.4173" stroke-miterlimit="10" d="M125.889,21.489H30.218
				c-5.863,0-10.63,4.767-10.63,10.63v95.672c0,5.862,4.766,10.632,10.631,10.632h95.672c5.862,0,10.63-4.767,10.63-10.632V32.119
				C136.52,26.256,131.753,21.489,125.889,21.489z M131.205,127.791c0,2.93-2.385,5.314-5.315,5.314H30.218
				c-2.931,0-5.315-2.385-5.315-5.314V85.489c0.292,0.035,0.595,0.023,0.883,0.071c0.148,0.027,0.294,0.037,0.438,0.037
				c1.277,0,2.403-0.922,2.619-2.223c0.24-1.448-0.738-2.816-2.185-3.057c-0.578-0.097-1.172-0.085-1.755-0.144v-32.11h106.301
				L131.205,127.791L131.205,127.791z M131.205,42.75H24.903V32.119c0-2.929,2.385-5.315,5.314-5.315h95.672
				c2.93,0,5.315,2.386,5.315,5.315V42.75L131.205,42.75z"/>
			<circle fill="#FA7D00" stroke="#FA7D00" stroke-width="1.4173" stroke-miterlimit="10" cx="32.875" cy="34.777" r="2.657"/>
			<circle fill="#FA7D00" stroke="#FA7D00" stroke-width="1.4173" stroke-miterlimit="10" cx="43.505" cy="34.777" r="2.657"/>
			<circle fill="#FA7D00" stroke="#FA7D00" stroke-width="1.4173" stroke-miterlimit="10" cx="54.135" cy="34.777" r="2.657"/>
			<path fill="#FA7D00" stroke="#FA7D00" stroke-width="1.4173" stroke-miterlimit="10" d="M57.976,84.824l14.955,9.97l2.489,17.429
				c0.161,1.111,1.002,2.006,2.106,2.229c0.174,0.033,0.353,0.053,0.526,0.053c0.922,0,1.793-0.482,2.277-1.293l6.54-10.896
				l13.626,9.084c0.441,0.294,0.954,0.447,1.475,0.447c0.266,0,0.529-0.041,0.789-0.119c0.765-0.239,1.381-0.808,1.68-1.552
				l21.26-53.151c0.397-0.991,0.158-2.128-0.602-2.878c-0.761-0.75-1.902-0.968-2.889-0.561L58.429,80.16
				c-0.904,0.377-1.529,1.221-1.623,2.195C56.711,83.332,57.161,84.281,57.976,84.824z M83.774,97.148
				c-0.006,0.007-0.006,0.016-0.01,0.023c-0.005,0.007-0.014,0.012-0.017,0.019l-4.12,6.868l-1.362-9.535l12.254-8.17L83.774,97.148
				z M118.416,60.924L100.72,105.16l-11.075-7.381l11.923-19.072c0.663-1.062,0.495-2.445-0.403-3.318
				c-0.891-0.869-2.283-0.99-3.324-0.303L75.395,90.048l-10.337-6.894L118.416,60.924z"/>
			<path fill="#FA7D00" stroke="#FA7D00" stroke-width="1.4173" stroke-miterlimit="10" d="M57.373,127.158
				c1.522,0.422,3.098,0.633,4.685,0.633c1.61,0,3.208-0.219,4.754-0.65c1.415-0.395,2.238-1.859,1.842-3.275
				c-0.397-1.41-1.866-2.234-3.275-1.843c-2.14,0.595-4.451,0.606-6.595,0.015c-1.417-0.391-2.877,0.441-3.267,1.855
				C55.128,125.307,55.957,126.769,57.373,127.158z"/>
			<path fill="#FA7D00" stroke="#FA7D00" stroke-width="1.4173" stroke-miterlimit="10" d="M46.845,110.805
				c-1.433,0.319-2.336,1.738-2.02,3.172c0.697,3.124,2.233,6.007,4.443,8.332c0.521,0.546,1.227,0.824,1.926,0.824
				c0.659,0,1.318-0.243,1.832-0.732c1.063-1.012,1.106-2.693,0.093-3.758c-1.547-1.624-2.622-3.635-3.105-5.818
				C49.701,111.393,48.276,110.515,46.845,110.805z"/>
			<path fill="#FA7D00" stroke="#FA7D00" stroke-width="1.4173" stroke-miterlimit="10" d="M32.588,87.928
				c2.117,1.171,4.012,2.678,5.626,4.481c0.527,0.587,1.251,0.888,1.98,0.888c0.633,0,1.266-0.226,1.772-0.678
				c1.093-0.982,1.186-2.66,0.207-3.754c-2.014-2.25-4.376-4.129-7.017-5.586c-1.29-0.711-2.904-0.24-3.61,1.041
				C30.836,85.602,31.303,87.219,32.588,87.928z"/>
			<path fill="#FA7D00" stroke="#FA7D00" stroke-width="1.4173" stroke-miterlimit="10" d="M42.044,98.496
				c0.734,1.765,1.223,3.628,1.461,5.543l0.205,1.643c0.169,1.346,1.313,2.328,2.634,2.328c0.108,0,0.22-0.008,0.331-0.02
				c1.456-0.182,2.49-1.512,2.307-2.966l-0.204-1.642c-0.297-2.387-0.911-4.713-1.826-6.92c-0.562-1.359-2.121-1.99-3.473-1.439
				C42.128,95.584,41.483,97.141,42.044,98.496z"/>
			<path fill="#FA7D00" stroke="#FA7D00" stroke-width="1.4173" stroke-miterlimit="10" d="M76.871,114.95
				c-1.227-0.817-2.874-0.486-3.686,0.737l-0.867,1.296c-0.374,0.56-0.787,1.083-1.238,1.569c-0.999,1.076-0.937,2.756,0.139,3.756
				c0.511,0.476,1.16,0.71,1.809,0.71c0.709,0,1.422-0.284,1.946-0.849c0.644-0.693,1.238-1.439,1.77-2.242l0.863-1.297
				C78.422,117.416,78.093,115.765,76.871,114.95z"/>
		</g>
	</g>
</g>
</svg>
