<?xml version="1.0" encoding="utf-8"?>
<!-- Generator: Adobe Illustrator 16.0.0, SVG Export Plug-In . SVG Version: 6.00 Build 0)  -->
<!DOCTYPE svg PUBLIC "-//W3C//DTD SVG 1.1//EN" "http://www.w3.org/Graphics/SVG/1.1/DTD/svg11.dtd">
<svg version="1.1" id="Warstwa_1" xmlns="http://www.w3.org/2000/svg" xmlns:xlink="http://www.w3.org/1999/xlink" x="0px" y="0px"
	 width="201px" height="172.457px" viewBox="0 0 201 172.457" enable-background="new 0 0 201 172.457" xml:space="preserve">
<g>
	<g>
		<g>
			<path fill="#FA7D00" stroke="#FA7D00" stroke-width="1.4173" stroke-miterlimit="10" d="M139.479,7.58H61.522
				c-5.382,0-9.744,4.363-9.744,9.744V43.31h6.496V17.324c0-1.793,1.454-3.248,3.248-3.248h77.955c1.793,0,3.248,1.455,3.248,3.248
				V43.31h6.496V17.324C149.223,11.943,144.857,7.58,139.479,7.58z"/>
		</g>
	</g>
	<g>
		<g>
			<path fill="#FA7D00" stroke="#FA7D00" stroke-width="1.4173" stroke-miterlimit="10" d="M142.727,127.762v25.983
				c0,1.793-1.455,3.248-3.248,3.248H61.522c-1.794,0-3.248-1.455-3.248-3.248v-25.983h-6.496v25.983
				c0,5.381,4.362,9.744,9.744,9.744h77.955c5.381,0,9.744-4.363,9.744-9.744v-25.983H142.727z"/>
		</g>
	</g>
	<g>
		<g>
			
				<rect x="64.771" y="33.564" fill="#FA7D00" stroke="#FA7D00" stroke-width="1.4173" stroke-miterlimit="10" width="71.459" height="6.496"/>
		</g>
	</g>
	<g>
		<g>
			
				<rect x="64.771" y="131.009" fill="#FA7D00" stroke="#FA7D00" stroke-width="1.4173" stroke-miterlimit="10" width="71.459" height="6.496"/>
		</g>
	</g>
	<g>
		<g>
			
				<rect x="74.515" y="20.572" fill="#FA7D00" stroke="#FA7D00" stroke-width="1.4173" stroke-miterlimit="10" width="38.977" height="6.496"/>
		</g>
	</g>
	<g>
		<g>
			
				<rect x="119.986" y="20.572" fill="#FA7D00" stroke="#FA7D00" stroke-width="1.4173" stroke-miterlimit="10" width="6.496" height="6.496"/>
		</g>
	</g>
	<g>
		<g>
			
				<rect x="97.251" y="144.001" fill="#FA7D00" stroke="#FA7D00" stroke-width="1.4173" stroke-miterlimit="10" width="6.496" height="6.496"/>
		</g>
	</g>
	<g>
		<g>
			<path fill="#FA7D00" stroke="#FA7D00" stroke-width="1.4173" stroke-miterlimit="10" d="M139.479,49.807H61.522
				c-5.382,0-9.744,4.361-9.744,9.744v51.971c0,5.381,4.362,9.744,9.744,9.744h77.955c5.381,0,9.744-4.363,9.744-9.744V59.551
				C149.223,54.168,144.857,49.807,139.479,49.807z M142.727,111.52c0,1.795-1.455,3.25-3.248,3.25H61.522
				c-1.794,0-3.248-1.455-3.248-3.25V59.551c0-1.795,1.454-3.248,3.248-3.248h77.955c1.793,0,3.248,1.453,3.248,3.248v51.969
				H142.727z"/>
		</g>
	</g>
	<g>
		<g>
			<path fill="#FA7D00" stroke="#FA7D00" stroke-width="1.4173" stroke-miterlimit="10" d="M140.743,53.73l-40.244,30.953
				L60.256,53.73l-3.963,5.145l42.226,32.48c0.568,0.438,1.264,0.676,1.982,0.676c0.715,0,1.412-0.236,1.979-0.676l42.226-32.48
				L140.743,53.73z"/>
		</g>
	</g>
	<g>
		<g>
			
				<rect x="51.418" y="94.949" transform="matrix(0.7071 -0.7071 0.7071 0.7071 -47.5134 81.6871)" fill="#FA7D00" stroke="#FA7D00" stroke-width="1.4173" stroke-miterlimit="10" width="46.861" height="6.497"/>
		</g>
	</g>
	<g>
		<g>
			
				<rect x="122.96" y="74.894" transform="matrix(0.707 -0.7072 0.7072 0.707 -32.5056 118.0369)" fill="#FA7D00" stroke="#FA7D00" stroke-width="1.4173" stroke-miterlimit="10" width="6.497" height="46.713"/>
		</g>
	</g>
</g>
</svg>
