<?xml version="1.0" encoding="utf-8"?>
<!-- Generator: Adobe Illustrator 16.0.0, SVG Export Plug-In . SVG Version: 6.00 Build 0)  -->
<!DOCTYPE svg PUBLIC "-//W3C//DTD SVG 1.1//EN" "http://www.w3.org/Graphics/SVG/1.1/DTD/svg11.dtd">
<svg version="1.1" id="Warstwa_1" xmlns="http://www.w3.org/2000/svg" xmlns:xlink="http://www.w3.org/1999/xlink" x="0px" y="0px"
	 width="201px" height="155.91px" viewBox="0 0 201 155.91" enable-background="new 0 0 201 155.91" xml:space="preserve">
<g>
	
		<line fill="none" stroke="#FA7D00" stroke-width="5.1678" stroke-linecap="round" stroke-miterlimit="10" x1="24.414" y1="99.075" x2="83.931" y2="99.075"/>
	<path fill="none" stroke="#FA7D00" stroke-width="5.1678" stroke-linecap="round" stroke-miterlimit="10" d="M83.931,115.848
		H29.675c-4.356,0-7.892-3.535-7.892-7.894V22.791c0-4.36,3.535-7.893,7.892-7.893h130.872c4.355,0,7.891,3.533,7.891,7.893v54.253"
		/>
	<path fill="none" stroke="#FA7D00" stroke-width="5.1678" stroke-linecap="round" stroke-miterlimit="10" d="M146.406,132.615
		c0,4.359-3.533,7.891-7.891,7.891h-35.514c-4.36,0-7.892-3.531-7.892-7.891V72.44c0-4.356,3.532-7.89,7.892-7.89h35.514
		c4.356,0,7.891,3.534,7.891,7.89V132.615z"/>
	
		<line fill="none" stroke="#FA7D00" stroke-width="5.1678" stroke-linecap="round" stroke-miterlimit="10" x1="95.111" y1="77.374" x2="146.406" y2="77.374"/>
	
		<line fill="none" stroke="#FA7D00" stroke-width="5.1678" stroke-linecap="round" stroke-miterlimit="10" x1="95.111" y1="127.684" x2="146.406" y2="127.684"/>
	<path fill="none" stroke="#FA7D00" stroke-width="5.1678" stroke-linecap="round" stroke-miterlimit="10" d="M185.537,131.957
		c0,4.359-3.381,7.893-7.549,7.893h-13.84c-4.168,0-7.547-3.533-7.547-7.893V94.801c0-4.357,3.379-7.891,7.547-7.891h13.84
		c4.168,0,7.549,3.533,7.549,7.891V131.957z"/>
	
		<line fill="none" stroke="#FA7D00" stroke-width="5.1678" stroke-linecap="round" stroke-miterlimit="10" x1="156.602" y1="99.075" x2="185.537" y2="99.075"/>
	
		<line fill="none" stroke="#FA7D00" stroke-width="5.1678" stroke-linecap="round" stroke-miterlimit="10" x1="156.602" y1="127.025" x2="185.537" y2="127.025"/>
	
		<line fill="none" stroke="#FA7D00" stroke-width="5.1678" stroke-linecap="round" stroke-miterlimit="10" x1="78.999" y1="115.848" x2="75.71" y2="139.85"/>
	
		<line fill="none" stroke="#FA7D00" stroke-width="5.1678" stroke-linecap="round" stroke-miterlimit="10" x1="69.135" y1="139.191" x2="83.931" y2="139.191"/>
</g>
</svg>
