<?xml version="1.0" encoding="utf-8"?>
<!-- Generator: Adobe Illustrator 16.0.3, SVG Export Plug-In . SVG Version: 6.00 Build 0)  -->
<!DOCTYPE svg PUBLIC "-//W3C//DTD SVG 1.1//EN" "http://www.w3.org/Graphics/SVG/1.1/DTD/svg11.dtd">
<svg version="1.1" id="Warstwa_1" xmlns="http://www.w3.org/2000/svg" xmlns:xlink="http://www.w3.org/1999/xlink" x="0px" y="0px"
	 width="156.107px" height="157.91px" viewBox="0 0 156.107 157.91" enable-background="new 0 0 156.107 157.91"
	 xml:space="preserve">
<path fill="#FA7D00" stroke="#FA7D00" stroke-width="1.3306" stroke-miterlimit="10" d="M69.786,97.043l-6.656-3.398v-0.709
	c2.98-1.627,5.074-4.305,6.243-7.984c1.773-0.939,2.906-2.771,2.906-4.824v-1.831c0-1.694-0.788-3.265-2.106-4.297
	c-1.142-6.917-5.968-10.422-14.361-10.422c-0.397,0-0.785,0.015-1.163,0.044c-1.581,0.129-3.896-0.007-5.898-1.355
	c-0.749-0.504-1.314-0.994-1.675-1.45c-0.613-0.784-1.647-1.059-2.564-0.683c-0.919,0.376-1.458,1.296-1.344,2.282
	c0.079,0.685,0.194,1.481,0.367,2.353c0.353,1.784,0.353,1.784-0.141,2.851c-0.188,0.404-0.419,0.897-0.688,1.562
	c-0.607,1.484-1.037,3.108-1.283,4.843c-1.298,1.033-2.075,2.595-2.075,4.273v1.831c0,2.053,1.133,3.885,2.906,4.824
	c1.17,3.682,3.264,6.359,6.242,7.984v0.688l-6.896,3.4c-2.517,1.371-4.081,4.008-4.081,6.876v2.425c0,1.467,0,4.906,18.296,4.906
	c18.297,0,18.297-3.439,18.297-4.906v-2.278C74.107,101.063,72.451,98.381,69.786,97.043z M70.448,105.909
	c-1.141,0.696-5.785,1.661-14.637,1.661s-13.496-0.965-14.638-1.661v-2.011c0-1.527,0.831-2.934,2.107-3.626l7.058-3.479
	c1.101-0.539,1.811-1.677,1.811-2.904V90.59l-1.107-0.477c-2.773-1.195-4.578-3.477-5.515-6.979l-0.262-0.977l-0.963-0.299
	c-0.767-0.238-1.301-0.952-1.301-1.734v-1.831c0-0.662,0.378-1.277,0.99-1.602l0.857-0.458l0.101-0.967
	c0.181-1.717,0.565-3.299,1.14-4.703c0.242-0.594,0.45-1.038,0.618-1.402c0.62-1.333,0.845-2.021,0.689-3.432
	c2.151,1.23,4.735,1.753,7.542,1.539c0.283-0.023,0.574-0.035,0.872-0.035c6.852,0,10.195,2.481,10.849,8.047l0.114,0.956l0.85,0.45
	c0.612,0.326,0.994,0.942,0.994,1.608v1.831c0,0.781-0.536,1.494-1.302,1.734l-0.963,0.297l-0.261,0.976
	c-0.938,3.499-2.741,5.782-5.517,6.979l-1.104,0.479v3.313c0,1.225,0.677,2.328,1.765,2.882l6.907,3.53
	c1.422,0.709,2.306,2.141,2.306,3.732V105.909z"/>
<g>
	<g>
		<g>
			<path fill="#FA7D00" stroke="#FA7D00" stroke-width="1.4173" stroke-miterlimit="10" d="M125.989,20.898H30.317
				c-5.862,0-10.631,4.766-10.631,10.63v95.671c0,5.862,4.768,10.631,10.631,10.631h95.672c5.861,0,10.631-4.768,10.631-10.631
				V31.528C136.618,25.664,131.851,20.898,125.989,20.898z M131.303,127.199c0,2.93-2.385,5.314-5.314,5.314H30.317
				c-2.931,0-5.315-2.385-5.315-5.314V47.472h106.302V127.199L131.303,127.199z M131.303,42.158H25.001v-10.63
				c0-2.929,2.385-5.315,5.314-5.315h95.673c2.928,0,5.314,2.386,5.314,5.315V42.158L131.303,42.158z"/>
			<circle fill="#FA7D00" stroke="#FA7D00" stroke-width="1.4173" stroke-miterlimit="10" cx="32.974" cy="34.185" r="2.657"/>
			<circle fill="#FA7D00" stroke="#FA7D00" stroke-width="1.4173" stroke-miterlimit="10" cx="43.604" cy="34.185" r="2.657"/>
			<circle fill="#FA7D00" stroke="#FA7D00" stroke-width="1.4173" stroke-miterlimit="10" cx="54.235" cy="34.185" r="2.657"/>
			<path fill="#FA7D00" stroke="#FA7D00" stroke-width="1.4173" stroke-miterlimit="10" d="M38.289,121.883h79.729
				c1.468,0,2.657-1.188,2.657-2.656c0-1.47-1.189-2.658-2.657-2.658H38.289c-1.469,0-2.657,1.189-2.657,2.658
				S36.82,121.883,38.289,121.883z"/>
			<path fill="#FA7D00" stroke="#FA7D00" stroke-width="1.4173" stroke-miterlimit="10" d="M87.069,74.048h30.948
				c1.468,0,2.657-1.188,2.657-2.657s-1.189-2.657-2.657-2.657H87.069c-1.469,0-2.658,1.188-2.658,2.657S85.6,74.048,87.069,74.048z
				"/>
			<path fill="#FA7D00" stroke="#FA7D00" stroke-width="1.4173" stroke-miterlimit="10" d="M87.069,89.994h30.948
				c1.468,0,2.657-1.189,2.657-2.659c0-1.468-1.189-2.657-2.657-2.657H87.069c-1.469,0-2.658,1.189-2.658,2.658
				S85.6,89.994,87.069,89.994z"/>
			<path fill="#FA7D00" stroke="#FA7D00" stroke-width="1.4173" stroke-miterlimit="10" d="M87.069,105.938h30.948
				c1.468,0,2.657-1.188,2.657-2.657s-1.189-2.657-2.657-2.657H87.069c-1.469,0-2.658,1.188-2.658,2.657
				S85.6,105.938,87.069,105.938z"/>
		</g>
	</g>
</g>
</svg>
