<?xml version="1.0" encoding="utf-8"?>
<!-- Generator: Adobe Illustrator 16.0.0, SVG Export Plug-In . SVG Version: 6.00 Build 0)  -->
<!DOCTYPE svg PUBLIC "-//W3C//DTD SVG 1.1//EN" "http://www.w3.org/Graphics/SVG/1.1/DTD/svg11.dtd">
<svg version="1.1" id="Warstwa_1" xmlns="http://www.w3.org/2000/svg" xmlns:xlink="http://www.w3.org/1999/xlink" x="0px" y="0px"
	 width="201px" height="155.91px" viewBox="0 0 201 155.91" enable-background="new 0 0 201 155.91" xml:space="preserve">
<g>
	<path fill="#FA7D00" d="M126.393,12.552H72.444c-6.972,0-12.645,5.672-12.645,12.643v100.319c0,6.975,5.673,12.646,12.645,12.646
		h53.949c6.971,0,12.645-5.673,12.645-12.646V25.195C139.037,18.225,133.363,12.552,126.393,12.552z M72.444,18.367h53.949
		c3.766,0,6.828,3.063,6.828,6.828v2.813H65.614v-2.813C65.614,21.43,68.678,18.367,72.444,18.367z M133.221,33.824v82.418H65.614
		V33.824H133.221z M126.393,132.344H72.444c-3.767,0-6.83-3.063-6.83-6.83v-3.455h67.607v3.455
		C133.221,129.279,130.158,132.344,126.393,132.344z"/>
	<path fill="#FA7D00" d="M99.419,124.618c-0.764,0-1.514,0.308-2.056,0.851c-0.544,0.54-0.851,1.29-0.851,2.055
		c0,0.767,0.307,1.516,0.851,2.057c0.542,0.54,1.292,0.852,2.056,0.852c0.765,0,1.515-0.312,2.058-0.852
		c0.539-0.541,0.852-1.29,0.852-2.057c0-0.765-0.313-1.515-0.852-2.055C100.934,124.926,100.184,124.618,99.419,124.618z"/>
	<path fill="#FA7D00" d="M77.139,75.259l9.046,9.046c0.568,0.566,1.312,0.851,2.055,0.851c0.746,0,1.491-0.283,2.058-0.851
		c1.134-1.138,1.134-2.978,0-4.111l-6.991-6.99l6.991-6.991c1.134-1.134,1.134-2.978,0-4.111c-1.135-1.135-2.977-1.135-4.112,0
		l-9.046,9.045c-0.547,0.547-0.853,1.286-0.853,2.058C76.286,73.973,76.592,74.712,77.139,75.259L77.139,75.259z"/>
	<path fill="#FA7D00" d="M108.541,84.305c0.566,0.566,1.311,0.851,2.055,0.851c0.742,0,1.489-0.283,2.057-0.851l9.047-9.046
		c0.546-0.547,0.851-1.286,0.851-2.057s-0.305-1.511-0.851-2.058l-9.047-9.045c-1.135-1.135-2.978-1.135-4.11,0
		c-1.138,1.134-1.138,2.978,0,4.111l6.987,6.991l-6.987,6.99C107.402,81.327,107.402,83.167,108.541,84.305z"/>
	<path fill="#FA7D00" d="M95.241,92.336c0.188,0.04,0.375,0.055,0.562,0.055c1.362,0,2.577-0.959,2.851-2.347l6.396-32.563
		c0.312-1.576-0.716-3.103-2.293-3.415c-1.577-0.31-3.104,0.716-3.413,2.293l-6.396,32.563
		C92.638,90.498,93.663,92.027,95.241,92.336z"/>
</g>
</svg>
