<?xml version="1.0" encoding="utf-8"?>
<!-- Generator: Adobe Illustrator 16.0.0, SVG Export Plug-In . SVG Version: 6.00 Build 0)  -->
<!DOCTYPE svg PUBLIC "-//W3C//DTD SVG 1.1//EN" "http://www.w3.org/Graphics/SVG/1.1/DTD/svg11.dtd">
<svg version="1.1" id="Warstwa_1" xmlns="http://www.w3.org/2000/svg" xmlns:xlink="http://www.w3.org/1999/xlink" x="0px" y="0px"
	 width="201px" height="155.91px" viewBox="0 0 201 155.91" enable-background="new 0 0 201 155.91" xml:space="preserve">
<g>
	<g>
		<path fill="#FA7D00" stroke="#FFFFFF" stroke-miterlimit="10" d="M120.34,49.297H87.259c-2.523,0-4.568,2.045-4.568,4.568
			c0,2.521,2.045,4.566,4.568,4.566h33.081c2.523,0,4.568-2.045,4.568-4.566C124.908,51.342,122.863,49.297,120.34,49.297z"/>
	</g>
</g>
<g>
	<g>
		<path fill="#FA7D00" stroke="#FFFFFF" stroke-miterlimit="10" d="M126.895,66.246H80.705c-2.523,0-4.568,2.045-4.568,4.568
			c0,2.521,2.045,4.566,4.568,4.566h46.189c2.521,0,4.568-2.045,4.568-4.566C131.463,68.291,129.416,66.246,126.895,66.246z"/>
	</g>
</g>
<g>
	<g>
		<path fill="#FA7D00" stroke="#FFFFFF" stroke-miterlimit="10" d="M126.895,79.496H80.705c-2.523,0-4.568,2.045-4.568,4.566
			c0,2.522,2.045,4.567,4.568,4.567h46.189c2.521,0,4.568-2.045,4.568-4.567C131.463,81.541,129.416,79.496,126.895,79.496z"/>
	</g>
</g>
<g>
	<g>
		<path fill="#FA7D00" stroke="#FFFFFF" stroke-miterlimit="10" d="M126.895,92.744H80.705c-2.523,0-4.568,2.045-4.568,4.568
			c0,2.521,2.045,4.565,4.568,4.565h46.189c2.521,0,4.568-2.045,4.568-4.565C131.463,94.789,129.416,92.744,126.895,92.744z"/>
	</g>
</g>
<path fill="#FA7D00" stroke="#FFFFFF" stroke-miterlimit="10" d="M152.666,139.107V10.795c-0.426-0.951-1.17-1.715-2.094-2.189
	H67.667V8.088h-8.57c-2.523,0-4.568,2.045-4.568,4.568v132.791c0,2.522,2.045,4.568,4.568,4.568h89.405
	c2.521,0,4.566-2.046,4.566-4.568v-6.34H152.666z M143.934,140.881H63.665v-16.172h80.269V140.881L143.934,140.881z
	 M143.934,115.574H63.665V17.223h80.269V115.574L143.934,115.574z"/>
</svg>
