<?xml version="1.0" encoding="utf-8"?>
<!-- Generator: Adobe Illustrator 16.0.3, SVG Export Plug-In . SVG Version: 6.00 Build 0)  -->
<!DOCTYPE svg PUBLIC "-//W3C//DTD SVG 1.1//EN" "http://www.w3.org/Graphics/SVG/1.1/DTD/svg11.dtd">
<svg version="1.1" id="Warstwa_1" xmlns="http://www.w3.org/2000/svg" xmlns:xlink="http://www.w3.org/1999/xlink" x="0px" y="0px"
	 width="201px" height="177.123px" viewBox="0 0 201 177.123" enable-background="new 0 0 201 177.123" xml:space="preserve">
<g>
	<path fill="#FA7D00" d="M124.781,59.448V39.195c0-1.208-0.98-2.188-2.188-2.188H83.657c-1.209,0-2.188,0.98-2.188,2.188v20.252
		c-4.707,1.609-8.101,6.073-8.101,11.315v35.596c0,5.244,3.394,9.707,8.101,11.316v20.253c0,1.208,0.979,2.188,2.188,2.188h38.936
		c1.208,0,2.188-0.98,2.188-2.188v-20.253c4.705-1.609,8.1-6.072,8.1-11.316V70.763C132.881,65.521,129.486,61.057,124.781,59.448z
		 M120.404,41.383v17.423H85.846V41.383H120.404z M85.846,135.739v-17.422h34.559v17.422H85.846z M128.505,106.358
		c0,4.18-3.401,7.582-7.582,7.582H85.328c-4.181,0-7.582-3.402-7.582-7.582V70.763c0-4.181,3.401-7.582,7.582-7.582h35.595
		c4.181,0,7.582,3.401,7.582,7.582V106.358z"/>
	<path fill="#FA7D00" d="M120.053,66.026H86.197c-3.091,0-5.607,2.516-5.607,5.607v33.856c0,3.092,2.516,5.607,5.607,5.607h33.856
		c3.091,0,5.608-2.516,5.608-5.607V71.633C125.66,68.541,123.144,66.026,120.053,66.026z M121.283,105.488
		c0,0.68-0.553,1.233-1.23,1.233H86.197c-0.679,0-1.231-0.552-1.231-1.233V71.633c0-0.678,0.553-1.231,1.231-1.231h33.856
		c0.678,0,1.231,0.553,1.231,1.231L121.283,105.488L121.283,105.488z"/>
	<path fill="#FA7D00" d="M96.936,80.753c-0.854-0.854-2.239-0.854-3.094,0l-6.261,6.261c-0.855,0.856-0.855,2.239,0,3.096
		l6.261,6.26c0.426,0.427,0.987,0.641,1.546,0.641s1.121-0.214,1.547-0.641c0.854-0.854,0.854-2.238,0-3.094l-4.714-4.714
		l4.714-4.712C97.79,82.993,97.79,81.607,96.936,80.753L96.936,80.753z"/>
	<path fill="#FA7D00" d="M112.408,80.753c-0.854-0.854-2.24-0.854-3.096,0c-0.853,0.854-0.854,2.24,0,3.095l4.714,4.712
		l-4.714,4.714c-0.853,0.854-0.853,2.239,0,3.094c0.428,0.428,0.988,0.641,1.549,0.641c0.559,0,1.119-0.213,1.547-0.641l6.26-6.26
		c0.854-0.855,0.854-2.239,0-3.095L112.408,80.753z"/>
	<path fill="#FA7D00" d="M105.469,75.146c-1.187-0.234-2.336,0.54-2.568,1.726l-4.427,22.536c-0.233,1.187,0.539,2.336,1.726,2.569
		c0.142,0.029,0.284,0.042,0.423,0.042c1.024,0,1.939-0.723,2.146-1.768l4.426-22.536C107.428,76.529,106.655,75.378,105.469,75.146
		z"/>
</g>
</svg>
