<?xml version="1.0" encoding="utf-8"?>
<!-- Generator: Adobe Illustrator 16.0.3, SVG Export Plug-In . SVG Version: 6.00 Build 0)  -->
<!DOCTYPE svg PUBLIC "-//W3C//DTD SVG 1.1//EN" "http://www.w3.org/Graphics/SVG/1.1/DTD/svg11.dtd">
<svg version="1.1" id="Warstwa_1" xmlns="http://www.w3.org/2000/svg" xmlns:xlink="http://www.w3.org/1999/xlink" x="0px" y="0px"
	 width="201px" height="172.457px" viewBox="0 0 201 172.457" enable-background="new 0 0 201 172.457" xml:space="preserve">
<g>
	<g>
		<g>
			<path fill="#FA7D00" stroke="#FA7D00" stroke-width="1.4173" stroke-miterlimit="10" d="M148.336,27.407H52.665
				c-5.864,0-10.631,4.766-10.631,10.63v95.674c0,5.86,4.766,10.63,10.631,10.63h95.672c5.861,0,10.63-4.769,10.63-10.63V38.037
				C158.967,32.173,154.198,27.407,148.336,27.407z M153.65,133.709c0,2.93-2.385,5.314-5.314,5.314H52.665
				c-2.931,0-5.316-2.385-5.316-5.314V53.982H153.65V133.709L153.65,133.709z M153.65,48.668H47.348V38.037
				c0-2.929,2.385-5.316,5.314-5.316h95.673c2.93,0,5.314,2.387,5.314,5.316V48.668L153.65,48.668z"/>
			<circle fill="#FA7D00" stroke="#FA7D00" stroke-width="1.4173" stroke-miterlimit="10" cx="55.322" cy="40.695" r="2.657"/>
			<circle fill="#FA7D00" stroke="#FA7D00" stroke-width="1.4173" stroke-miterlimit="10" cx="65.952" cy="40.695" r="2.657"/>
			<circle fill="#FA7D00" stroke="#FA7D00" stroke-width="1.4173" stroke-miterlimit="10" cx="76.582" cy="40.695" r="2.657"/>
			<path fill="#FA7D00" stroke="#FA7D00" stroke-width="1.4173" stroke-miterlimit="10" d="M60.636,128.393h79.727
				c1.469,0,2.658-1.188,2.658-2.656c0-1.47-1.189-2.658-2.658-2.658H60.636c-1.469,0-2.657,1.189-2.657,2.658
				S59.167,128.393,60.636,128.393z"/>
			<path fill="#FA7D00" stroke="#FA7D00" stroke-width="1.4173" stroke-miterlimit="10" d="M61.412,80.557h78.951
				c1.469,0,2.658-1.188,2.658-2.657s-1.189-2.658-2.658-2.658H61.412c-1.469,0-2.657,1.188-2.657,2.658
				S59.943,80.557,61.412,80.557z"/>
			<path fill="#FA7D00" stroke="#FA7D00" stroke-width="1.4173" stroke-miterlimit="10" d="M61.412,96.503h78.951
				c1.469,0,2.658-1.189,2.658-2.659c0-1.468-1.189-2.657-2.658-2.657H61.412c-1.469,0-2.657,1.189-2.657,2.659
				C58.755,95.313,59.943,96.503,61.412,96.503z"/>
			<path fill="#FA7D00" stroke="#FA7D00" stroke-width="1.4173" stroke-miterlimit="10" d="M61.412,112.448h78.951
				c1.469,0,2.658-1.188,2.658-2.657s-1.189-2.657-2.658-2.657H61.412c-1.469,0-2.657,1.188-2.657,2.657
				S59.943,112.448,61.412,112.448z"/>
		</g>
	</g>
</g>
</svg>
