<?xml version="1.0" encoding="utf-8"?>
<!-- Generator: Adobe Illustrator 16.0.3, SVG Export Plug-In . SVG Version: 6.00 Build 0)  -->
<!DOCTYPE svg PUBLIC "-//W3C//DTD SVG 1.1//EN" "http://www.w3.org/Graphics/SVG/1.1/DTD/svg11.dtd">
<svg version="1.1" id="Warstwa_1" xmlns="http://www.w3.org/2000/svg" xmlns:xlink="http://www.w3.org/1999/xlink" x="0px" y="0px"
	 width="155.91px" height="156.441px" viewBox="0 0 155.91 156.441" enable-background="new 0 0 155.91 156.441"
	 xml:space="preserve">
<g>
	<g>
		<g>
			<path fill="#FA7D00" d="M30.663,84.231l32.445,0.421l-0.389,29.979l-32.388-4.894L30.663,84.231 M26.554,80.014l-0.433,33.298
				l40.7,6.148l0.504-38.92L26.554,80.014L26.554,80.014z"/>
		</g>
		<g>
			<path fill="#FA7D00" d="M63.676,40.849l-0.395,30.453l-32.445-0.421l0.335-25.979L63.676,40.849 M67.9,36.127L27.056,41.22
				l-0.437,33.768l40.77,0.528L67.9,36.127L67.9,36.127z"/>
		</g>
		<g>
			<path fill="#FA7D00" d="M75.914,84.818l45.889,0.594l-0.494,38.047l-45.803-6.92L75.914,84.818 M71.805,80.601l-0.51,39.512
				l54.115,8.175l0.609-46.984L71.805,80.601L71.805,80.601z"/>
		</g>
		<g>
			<path fill="#FA7D00" d="M122.475,33.54l-0.498,38.522l-45.889-0.595l0.417-32.2L122.475,33.54 M126.699,28.818l-54.312,6.769
				l-0.517,39.988l54.215,0.704L126.699,28.818L126.699,28.818z"/>
		</g>
	</g>
</g>
</svg>
