<?xml version="1.0" encoding="utf-8"?>
<!-- Generator: Adobe Illustrator 16.0.0, SVG Export Plug-In . SVG Version: 6.00 Build 0)  -->
<!DOCTYPE svg PUBLIC "-//W3C//DTD SVG 1.1//EN" "http://www.w3.org/Graphics/SVG/1.1/DTD/svg11.dtd">
<svg version="1.1" id="Warstwa_1" xmlns="http://www.w3.org/2000/svg" xmlns:xlink="http://www.w3.org/1999/xlink" x="0px" y="0px"
	 width="201px" height="155.91px" viewBox="0 0 201 155.91" enable-background="new 0 0 201 155.91" xml:space="preserve">
<g>
	<path fill="#FA7D00" stroke="#FA7D00" stroke-width="1.4173" stroke-miterlimit="10" d="M167.497,25.91H33.503
		c-6.041,0-10.958,4.916-10.958,10.957v92.418c0,6.041,4.917,10.959,10.958,10.959h133.994c6.042,0,10.958-4.918,10.958-10.959
		V36.867C178.455,30.826,173.539,25.91,167.497,25.91z M173.258,129.285c0,3.178-2.582,5.762-5.761,5.762H33.503
		c-3.178,0-5.762-2.584-5.762-5.762V36.867c0-3.178,2.584-5.762,5.762-5.762h133.994c3.179,0,5.761,2.584,5.761,5.762V129.285
		L173.258,129.285z"/>
	<path fill="#FA7D00" stroke="#FA7D00" stroke-width="1.4173" stroke-miterlimit="10" d="M81.37,99.307l-9.453-4.828v-1.006
		c4.23-2.311,7.205-6.113,8.865-11.34c2.518-1.336,4.127-3.936,4.127-6.852v-2.6c0-2.406-1.12-4.637-2.991-6.104
		c-1.621-9.822-8.476-14.801-20.396-14.801c-0.564,0-1.115,0.021-1.652,0.063c-2.246,0.184-5.533-0.01-8.378-1.924
		c-1.063-0.717-1.866-1.412-2.378-2.061c-0.873-1.113-2.341-1.504-3.643-0.969c-1.305,0.535-2.071,1.84-1.908,3.24
		c0.109,0.973,0.273,2.104,0.521,3.342C44.585,56,44.585,56,43.882,57.516c-0.266,0.574-0.594,1.273-0.978,2.217
		c-0.86,2.107-1.471,4.414-1.821,6.879c-1.846,1.467-2.947,3.686-2.947,6.068v2.6c0,2.916,1.609,5.516,4.127,6.852
		c1.66,5.229,4.635,9.033,8.865,11.341v0.977l-9.793,4.828c-3.576,1.949-5.797,5.69-5.797,9.766v3.443c0,2.086,0,6.969,25.984,6.969
		s25.984-4.883,25.984-6.969v-3.234C87.507,105.014,85.155,101.207,81.37,99.307z M82.311,111.898
		c-1.622,0.987-8.216,2.358-20.788,2.358c-12.572,0-19.166-1.371-20.788-2.358v-2.855c0-2.17,1.183-4.166,2.993-5.15l10.023-4.938
		c1.563-0.765,2.572-2.384,2.572-4.127v-4.685l-1.57-0.676c-3.941-1.699-6.504-4.939-7.834-9.912l-0.371-1.385l-1.367-0.426
		c-1.086-0.34-1.848-1.352-1.848-2.463v-2.6c0-0.939,0.537-1.813,1.406-2.275l1.219-0.65l0.143-1.373
		c0.257-2.438,0.801-4.686,1.616-6.68c0.345-0.844,0.64-1.475,0.878-1.992c0.881-1.893,1.201-2.869,0.98-4.873
		c3.055,1.746,6.727,2.49,10.711,2.186c0.402-0.033,0.815-0.049,1.238-0.049c9.729,0,14.479,3.523,15.407,11.428l0.161,1.357
		l1.208,0.639c0.868,0.463,1.411,1.338,1.411,2.283v2.6c0,1.111-0.762,2.123-1.85,2.461l-1.367,0.426l-0.371,1.385
		c-1.331,4.972-3.893,8.212-7.835,9.91l-1.569,0.681v4.705c0,1.737,0.961,3.305,2.505,4.092l9.81,5.014
		c2.021,1.008,3.276,3.039,3.276,5.299L82.311,111.898L82.311,111.898z"/>
	<path fill="#FA7D00" stroke="#FA7D00" stroke-width="1.4173" stroke-miterlimit="10" d="M100.5,64.887h25.984
		c1.438,0,2.6-1.162,2.6-2.598c0-1.438-1.162-2.6-2.6-2.6H100.5c-1.437,0-2.599,1.162-2.599,2.6
		C97.901,63.725,99.063,64.887,100.5,64.887z"/>
	<path fill="#FA7D00" stroke="#FA7D00" stroke-width="1.4173" stroke-miterlimit="10" d="M136.879,64.887h2.6
		c1.437,0,2.599-1.162,2.599-2.598c0-1.438-1.162-2.6-2.599-2.6h-2.6c-1.438,0-2.598,1.162-2.598,2.6
		C134.281,63.725,135.441,64.887,136.879,64.887z"/>
	<path fill="#FA7D00" stroke="#FA7D00" stroke-width="1.4173" stroke-miterlimit="10" d="M103.1,103.865h-2.6
		c-1.437,0-2.599,1.16-2.599,2.598s1.162,2.598,2.599,2.598h2.6c1.437,0,2.598-1.16,2.598-2.598S104.535,103.865,103.1,103.865z"/>
	<path fill="#FA7D00" stroke="#FA7D00" stroke-width="1.4173" stroke-miterlimit="10" d="M118.689,103.865h-5.197
		c-1.438,0-2.598,1.16-2.598,2.598s1.16,2.598,2.598,2.598h5.197c1.438,0,2.599-1.16,2.599-2.598S120.127,103.865,118.689,103.865z"
		/>
	<path fill="#FA7D00" stroke="#FA7D00" stroke-width="1.4173" stroke-miterlimit="10" d="M131.682,103.865h-2.598
		c-1.438,0-2.6,1.16-2.6,2.598s1.162,2.598,2.6,2.598h2.598c1.438,0,2.601-1.16,2.601-2.598S133.119,103.865,131.682,103.865z"/>
	<path fill="#FA7D00" stroke="#FA7D00" stroke-width="1.4173" stroke-miterlimit="10" d="M147.273,103.865h-5.197
		c-1.438,0-2.6,1.16-2.6,2.598s1.162,2.598,2.6,2.598h5.197c1.437,0,2.598-1.16,2.598-2.598S148.71,103.865,147.273,103.865z"/>
	<path fill="#FA7D00" stroke="#FA7D00" stroke-width="1.4173" stroke-miterlimit="10" d="M155.822,104.617
		c-0.471,0.492-0.754,1.17-0.754,1.846s0.283,1.352,0.754,1.846c0.49,0.467,1.17,0.752,1.845,0.752c0.676,0,1.351-0.285,1.845-0.752
		c0.469-0.494,0.754-1.17,0.754-1.846s-0.285-1.354-0.754-1.846C158.523,103.656,156.783,103.656,155.822,104.617z"/>
	<path fill="#FA7D00" stroke="#FA7D00" stroke-width="1.4173" stroke-miterlimit="10" d="M157.667,75.281H100.5
		c-1.437,0-2.599,1.162-2.599,2.598c0,1.438,1.162,2.6,2.599,2.6h57.167c1.437,0,2.599-1.162,2.599-2.6
		C160.266,76.443,159.104,75.281,157.667,75.281z"/>
	<path fill="#FA7D00" stroke="#FA7D00" stroke-width="1.4173" stroke-miterlimit="10" d="M157.667,90.871H100.5
		c-1.437,0-2.599,1.162-2.599,2.6c0,1.438,1.162,2.598,2.599,2.598h57.167c1.437,0,2.599-1.159,2.599-2.598
		C160.266,92.033,159.104,90.871,157.667,90.871z"/>
</g>
</svg>
