<?xml version="1.0" encoding="utf-8"?>
<!-- Generator: Adobe Illustrator 16.0.0, SVG Export Plug-In . SVG Version: 6.00 Build 0)  -->
<!DOCTYPE svg PUBLIC "-//W3C//DTD SVG 1.1//EN" "http://www.w3.org/Graphics/SVG/1.1/DTD/svg11.dtd">
<svg version="1.1" id="Warstwa_1" xmlns="http://www.w3.org/2000/svg" xmlns:xlink="http://www.w3.org/1999/xlink" x="0px" y="0px"
	 width="155.91px" height="71.169px" viewBox="0 0 155.91 71.169" enable-background="new 0 0 155.91 71.169" xml:space="preserve">
<g>
	<g>
		<path fill="#676767" d="M57.988,22.402h1.896c0.338,0,0.508,0.16,0.508,0.48v14.189c0,1.463-0.41,2.605-1.23,3.426
			c-0.822,0.822-1.967,1.233-3.43,1.233h-3.006c-1.484,0-2.633-0.411-3.457-1.233c-0.822-0.82-1.23-1.963-1.23-3.426v-2.705
			c0-0.342,0.18-0.512,0.539-0.512h1.895c0.342,0,0.51,0.17,0.51,0.512v2.584c0,1.484,0.723,2.225,2.166,2.225h2.133
			c1.445,0,2.166-0.74,2.166-2.225V22.911C57.447,22.572,57.629,22.402,57.988,22.402z"/>
		<path fill="#676767" d="M69.711,41.73h-1.17c-1.486,0-2.633-0.411-3.441-1.233c-0.814-0.82-1.219-1.963-1.219-3.426V31.06
			c0-1.484,0.404-2.632,1.219-3.443c0.809-0.813,1.955-1.219,3.441-1.219h6.732c0.361,0,0.539,0.171,0.539,0.512v14.31
			c0,0.34-0.178,0.511-0.539,0.511h-1.893c-0.344,0-0.512-0.171-0.512-0.511v-1.084h-0.121C72.268,41.198,71.254,41.73,69.711,41.73
			z M72.869,36.62v-7.364c0-0.202-0.109-0.302-0.332-0.302h-3.576c-1.443,0-2.166,0.743-2.166,2.225v5.771
			c0,1.484,0.723,2.225,2.166,2.225h1.443C72.045,39.175,72.869,38.325,72.869,36.62z"/>
		<path fill="#676767" d="M81.826,41.73h-1.893c-0.342,0-0.512-0.171-0.512-0.511V26.91c0-0.34,0.17-0.512,0.512-0.512h1.893
			c0.342,0,0.51,0.171,0.51,0.512v1.143h0.121c0.201-0.5,0.59-0.902,1.16-1.202c0.57-0.301,1.205-0.452,1.906-0.452h1.113
			c0.338,0,0.51,0.171,0.51,0.512v1.563c0,0.38-0.172,0.54-0.51,0.48h-1.805c-1.664,0-2.496,0.912-2.496,2.736v9.529
			C82.336,41.56,82.168,41.73,81.826,41.73z"/>
		<path fill="#676767" d="M98.42,41.73h-2.164c-0.281,0-0.383-0.171-0.301-0.511l5.23-18.309c0.102-0.339,0.342-0.509,0.721-0.509
			h3.008c0.4,0,0.641,0.17,0.721,0.509l5.232,18.309c0.078,0.34-0.033,0.511-0.334,0.511H108.4c-0.182,0-0.307-0.034-0.377-0.104
			c-0.066-0.07-0.123-0.205-0.164-0.406l-1.143-3.908h-6.613l-1.141,3.908C98.881,41.56,98.701,41.73,98.42,41.73z M103.352,25.288
			l-2.648,9.619h5.443l-2.676-9.619H103.352z"/>
		<path fill="#676767" d="M116.156,45.968h-1.895c-0.342,0-0.512-0.168-0.512-0.51V26.91c0-0.34,0.17-0.512,0.512-0.512h1.895
			c0.342,0,0.51,0.171,0.51,0.512v1.083h0.121c0.482-1.062,1.492-1.594,3.037-1.594h1.531c1.443,0,2.551,0.402,3.322,1.203
			c0.771,0.803,1.158,1.955,1.158,3.459v6.011c0,1.482-0.387,2.63-1.158,3.441c-0.771,0.811-1.879,1.218-3.322,1.218h-1.531
			c-1.545,0-2.555-0.532-3.037-1.595h-0.121v5.322C116.666,45.8,116.498,45.968,116.156,45.968z M119.131,39.175h1.594
			c1.443,0,2.164-0.74,2.164-2.225v-5.771c0-1.482-0.721-2.225-2.164-2.225h-1.594c-1.643,0-2.465,0.853-2.465,2.556v5.11
			C116.666,38.325,117.488,39.175,119.131,39.175z"/>
		<path fill="#676767" d="M131.938,45.968h-1.895c-0.34,0-0.512-0.168-0.512-0.51V26.91c0-0.34,0.172-0.512,0.512-0.512h1.895
			c0.342,0,0.512,0.171,0.512,0.512v1.083h0.121c0.479-1.062,1.492-1.594,3.037-1.594h1.529c1.445,0,2.553,0.402,3.324,1.203
			c0.77,0.803,1.158,1.955,1.158,3.459v6.011c0,1.482-0.389,2.63-1.158,3.441c-0.771,0.811-1.879,1.218-3.324,1.218h-1.529
			c-1.545,0-2.559-0.532-3.037-1.595h-0.121v5.322C132.449,45.8,132.279,45.968,131.938,45.968z M134.914,39.175h1.594
			c1.443,0,2.164-0.74,2.164-2.225v-5.771c0-1.482-0.721-2.225-2.164-2.225h-1.594c-1.643,0-2.465,0.853-2.465,2.556v5.11
			C132.449,38.325,133.271,39.175,134.914,39.175z"/>
		<path fill="#676767" d="M150.666,41.73h-5.529c-0.342,0-0.512-0.171-0.512-0.511v-1.473c0-0.321,0.17-0.48,0.512-0.48h5.049
			c1.303,0,1.953-0.453,1.953-1.354v-0.361c0-0.801-0.473-1.412-1.412-1.834l-3.279-1.563c-1.02-0.48-1.76-1.012-2.223-1.594
			c-0.461-0.581-0.691-1.342-0.691-2.284c0-2.585,1.434-3.879,4.299-3.879h4.992c0.316,0,0.479,0.171,0.479,0.512v1.473
			c0,0.341-0.162,0.511-0.479,0.511h-4.391c-0.602,0-1.063,0.105-1.383,0.315c-0.322,0.21-0.48,0.487-0.48,0.827v0.33
			c0,0.643,0.512,1.203,1.533,1.685l3.307,1.683c1.041,0.461,1.758,1.007,2.148,1.638c0.391,0.632,0.586,1.449,0.586,2.451
			C155.145,40.428,153.652,41.73,150.666,41.73z"/>
	</g>
	<g>
		<g>
			<path fill="#EF7F22" d="M10.844,17.746h0.273c0.507,0,0.761,0.254,0.761,0.762v1.666c0,0.51-0.254,0.763-0.761,0.763h-0.137
				c-0.989,0-1.688,0.263-2.092,0.788c-0.404,0.523-0.607,1.37-0.607,2.539v5.845c0,2.366-0.884,3.834-2.652,4.405
				c1.769,0.509,2.652,1.963,2.652,4.359v5.844c0,1.17,0.203,2.018,0.607,2.541s1.103,0.787,2.092,0.787h16.229
				c0.507,0,0.64,3.191,0.133,3.191H10.844c-4.072,0-6.111-2.322-6.111-6.969v-5.08c0-1.827-0.737-2.741-2.204-2.741
				c-0.539,0-0.809-0.27-0.809-0.809v-2.292c0-0.511,0.27-0.765,0.809-0.765c1.467,0,2.204-0.929,2.204-2.787v-5.08
				C4.733,20.07,6.772,17.746,10.844,17.746z"/>
			<path fill="#EF7F22" d="M33.727,24.713v5.08c0,1.858,0.734,2.787,2.205,2.787c0.508,0,0.762,0.254,0.762,0.765v2.292
				c0,0.539-0.316,0.809-0.943,0.809c-1.348,0-2.023,0.914-2.023,2.741v5.08c0,4.646-2.037,6.969-6.113,6.969h-0.271
				c-0.538,0-0.538-3.191,0-3.191h0.137c0.987,0,1.678-0.264,2.067-0.787c0.387-0.523,0.583-1.371,0.583-2.541v-5.844
				c0-2.396,0.884-3.851,2.654-4.359c-1.77-0.6-2.654-2.068-2.654-4.405v-5.845c0-1.168-0.196-2.016-0.583-2.539
				c-0.39-0.525-1.08-0.788-2.067-0.788h-0.137c-0.538,0-0.808-0.252-0.808-0.763v-1.666c0-0.508,0.27-0.762,0.808-0.762h0.271
				C31.689,17.746,33.727,20.07,33.727,24.713z"/>
		</g>
		<g>
			<path fill="#EF7F22" d="M29.715,14.619H8.699c-0.706,0-1.057-0.375-1.057-1.122v-1.305c0-0.706,0.351-1.058,1.057-1.058h21.017
				c0.706,0,1.057,0.352,1.057,1.058v1.305C30.772,14.245,30.421,14.619,29.715,14.619z"/>
		</g>
	</g>
</g>
</svg>
