<?xml version="1.0" encoding="utf-8"?>
<!-- Generator: Adobe Illustrator 16.0.0, SVG Export Plug-In . SVG Version: 6.00 Build 0)  -->
<!DOCTYPE svg PUBLIC "-//W3C//DTD SVG 1.1//EN" "http://www.w3.org/Graphics/SVG/1.1/DTD/svg11.dtd">
<svg version="1.1" id="Warstwa_1" xmlns="http://www.w3.org/2000/svg" xmlns:xlink="http://www.w3.org/1999/xlink" x="0px" y="0px"
	 width="282.08px" height="218.989px" viewBox="0 0 282.08 218.989" enable-background="new 0 0 282.08 218.989"
	 xml:space="preserve">
<g>
	<path fill="#F97D00" d="M175.021,23.908h-70.005c-9.047,0-16.408,7.361-16.408,16.409v130.182c0,9.049,7.361,16.41,16.408,16.41
		h70.005c9.049,0,16.41-7.361,16.41-16.41V40.317C191.431,31.269,184.069,23.908,175.021,23.908z M105.015,31.455h70.005
		c4.89,0,8.863,3.976,8.863,8.862v3.648H96.151v-3.648C96.151,35.43,100.128,31.455,105.015,31.455z M183.884,51.512v106.955H96.151
		V51.512H183.884z M175.021,179.361h-70.005c-4.887,0-8.863-3.976-8.863-8.862v-4.484h87.732v4.484
		C183.884,175.385,179.909,179.361,175.021,179.361z"/>
	<path fill="#F97D00" d="M140.02,169.333c-0.992,0-1.966,0.403-2.667,1.104c-0.706,0.703-1.105,1.676-1.105,2.668
		s0.399,1.966,1.105,2.668c0.701,0.701,1.675,1.104,2.667,1.104s1.965-0.403,2.668-1.104c0.701-0.702,1.104-1.676,1.104-2.668
		s-0.403-1.965-1.104-2.668C141.985,169.736,141.012,169.333,140.02,169.333z"/>
	<path fill="#F97D00" d="M111.106,105.281l11.739,11.739c0.737,0.736,1.702,1.104,2.668,1.104c0.966,0,1.932-0.367,2.668-1.104
		c1.474-1.475,1.474-3.863,0-5.336l-9.071-9.072l9.071-9.071c1.474-1.473,1.474-3.862,0-5.336c-1.474-1.473-3.862-1.473-5.336,0
		l-11.74,11.739c-0.707,0.708-1.104,1.668-1.104,2.668C110.001,103.613,110.398,104.573,111.106,105.281L111.106,105.281z"/>
	<path fill="#F97D00" d="M151.854,117.02c0.737,0.736,1.703,1.104,2.668,1.104c0.967,0,1.932-0.367,2.668-1.104l11.74-11.739
		c0.709-0.708,1.104-1.668,1.104-2.669c0-1-0.396-1.96-1.104-2.667l-11.74-11.739c-1.474-1.474-3.861-1.474-5.336,0
		c-1.474,1.473-1.474,3.862,0,5.335l9.069,9.071l-9.069,9.072C150.382,113.157,150.382,115.545,151.854,117.02z"/>
	<path fill="#F97D00" d="M134.597,127.444c0.245,0.051,0.49,0.072,0.73,0.072c1.768,0,3.346-1.248,3.699-3.047l8.301-42.259
		c0.402-2.045-0.932-4.028-2.977-4.431c-2.047-0.402-4.028,0.932-4.43,2.976l-8.301,42.26
		C131.22,125.059,132.552,127.043,134.597,127.444z"/>
</g>
</svg>
