<?xml version="1.0" encoding="utf-8"?>
<!-- Generator: Adobe Illustrator 16.0.3, SVG Export Plug-In . SVG Version: 6.00 Build 0)  -->
<!DOCTYPE svg PUBLIC "-//W3C//DTD SVG 1.1//EN" "http://www.w3.org/Graphics/SVG/1.1/DTD/svg11.dtd">
<svg version="1.1" id="Warstwa_1" xmlns="http://www.w3.org/2000/svg" xmlns:xlink="http://www.w3.org/1999/xlink" x="0px" y="0px"
	 width="58.5px" height="49.5px" viewBox="0 0 58.5 49.5" enable-background="new 0 0 58.5 49.5" xml:space="preserve">
<g>
	<path fill="#FFFFFF" d="M113.292,8.257c-8.234,0-14.928,6.699-14.928,14.93c0,8.232,6.693,14.93,14.928,14.93
		c0.51,0,0.92-0.41,0.92-0.918c0-0.512-0.41-0.924-0.92-0.924c-7.215,0-13.086-5.871-13.086-13.088s5.871-13.086,13.086-13.086
		c7.219,0,13.088,5.869,13.088,13.086c0,3.018-1.602,6.008-3.9,7.273c-0.836,0.457-1.742,0.684-2.705,0.693
		c0.58-0.344,1.08-0.809,1.455-1.398c0.072-0.109,0.17-0.205,0.219-0.327c0.299-0.722,0.324-1.542,0.504-2.302
		c0.223-0.973-4.258-2.875-4.646-1.66c-0.139,0.451-0.357,1.878-0.639,2.25c-0.254,0.336-0.869,0.172-1.258-0.156
		c-1.021-0.871-2.16-2.148-3.16-3.16c-0.025-0.027-0.057-0.056-0.086-0.084c-0.023-0.027-0.059-0.055-0.084-0.086v0.004
		c-1.008-0.998-2.289-2.137-3.16-3.162c-0.33-0.389-0.486-1.006-0.15-1.258c0.375-0.283,1.793-0.496,2.244-0.636
		c1.215-0.388-0.688-4.874-1.66-4.649c-0.758,0.178-1.58,0.203-2.299,0.504c-0.125,0.053-0.219,0.146-0.33,0.223
		c-2.557,1.619-2.889,5.557-0.387,8.494c0.949,1.119,1.941,2.205,2.963,3.266l-0.006,0.004c0.027,0.029,0.059,0.055,0.086,0.082
		c0.031,0.031,0.057,0.059,0.082,0.084l0.008-0.004c1.057,1.021,2.314,2.527,4.355,3.893c4.303,2.869,7.6,2.064,9.541,1
		c3.355-1.85,4.857-5.795,4.857-8.883C128.224,14.956,121.522,8.257,113.292,8.257L113.292,8.257z M113.292,8.257"/>
</g>
<g>
	<g>
		<path fill="#FFFFFF" d="M39.326,12.684c-2.807-2.807-6.533-4.352-10.502-4.352s-7.695,1.545-10.502,4.352
			s-4.354,6.533-4.354,10.502s1.547,7.695,4.354,10.502s6.533,4.354,10.502,4.354c2.418,0,4.811-0.59,6.934-1.719
			c0.537-0.277,0.738-0.941,0.457-1.479c-0.279-0.533-0.943-0.734-1.479-0.457c-1.809,0.957-3.848,1.463-5.912,1.463
			c-6.982,0-12.662-5.682-12.662-12.664s5.68-12.664,12.662-12.664s12.664,5.682,12.664,12.664c0,2.35-0.658,3.688-1.213,4.396
			c-0.59,0.76-1.381,1.191-2.174,1.191c-1.102,0-2.215-0.877-2.215-2.836v-8.529c0-0.604-0.494-1.096-1.096-1.096
			c-0.604,0-1.096,0.492-1.096,1.096v0.48c-1.365-1.369-3.246-2.217-5.328-2.217c-4.145-0.006-7.518,3.368-7.518,7.514
			c0,4.146,3.373,7.521,7.518,7.521c0.738,0,1.461-0.106,2.156-0.319c0.578-0.168,0.906-0.785,0.736-1.363
			c-0.17-0.576-0.785-0.906-1.363-0.736c-0.494,0.145-1.012,0.225-1.529,0.225c-2.934,0-5.326-2.385-5.326-5.326
			c0-2.934,2.387-5.326,5.326-5.326c2.941,0,5.328,2.385,5.328,5.326v2.752c0,3.299,2.215,5.029,4.406,5.029
			c1.469,0,2.893-0.742,3.904-2.039c1.096-1.408,1.674-3.393,1.674-5.742C43.68,19.217,42.133,15.49,39.326,12.684z"/>
	</g>
</g>
</svg>
