<?xml version="1.0" encoding="utf-8"?>
<!-- Generator: Adobe Illustrator 16.0.0, SVG Export Plug-In . SVG Version: 6.00 Build 0)  -->
<!DOCTYPE svg PUBLIC "-//W3C//DTD SVG 1.1//EN" "http://www.w3.org/Graphics/SVG/1.1/DTD/svg11.dtd">
<svg version="1.1" id="Warstwa_1" xmlns="http://www.w3.org/2000/svg" xmlns:xlink="http://www.w3.org/1999/xlink" x="0px" y="0px"
	 width="282.08px" height="218.989px" viewBox="0 0 282.08 218.989" enable-background="new 0 0 282.08 218.989"
	 xml:space="preserve">
<g>
	<g>
		<g>
			<path fill="#F97D00" d="M175.036,57.55L157.03,32.544c-0.695-0.965-1.811-1.537-2.998-1.537s-2.303,0.572-2.996,1.537
				L133.03,57.55c-0.453,0.629-0.696,1.383-0.696,2.156v0.59v119.83c0,7.619,6.199,13.82,13.817,13.82h15.762
				c7.619,0,13.818-6.201,13.818-13.82V60.296v-0.59C175.731,58.933,175.489,58.179,175.036,57.55z M154.032,41.021l11.223,15.584
				h-22.443L154.032,41.021z M139.72,63.99h17.531v95.645h-6.438V89.103c0-2.041-1.652-3.695-3.692-3.695s-3.692,1.654-3.692,3.693
				v70.532h-3.708V63.99L139.72,63.99z M168.347,180.125c0,3.547-2.885,6.435-6.434,6.435h-15.762c-3.547,0-6.432-2.888-6.432-6.435
				v-13.106h28.627V180.125L168.347,180.125z M168.347,159.633h-3.709V63.99h3.709V159.633z"/>
		</g>
	</g>
	<g>
		<g>
			<path fill="#F97D00" d="M150.741,73.55c-0.051-0.232-0.119-0.465-0.211-0.689c-0.092-0.223-0.207-0.436-0.342-0.635
				c-0.131-0.203-0.287-0.393-0.455-0.563c-0.172-0.168-0.357-0.324-0.563-0.461c-0.196-0.133-0.414-0.244-0.64-0.336
				c-0.221-0.094-0.452-0.166-0.688-0.215c-0.478-0.092-0.969-0.092-1.444,0c-0.231,0.049-0.465,0.121-0.689,0.215
				c-0.221,0.092-0.436,0.203-0.637,0.336c-0.202,0.137-0.391,0.293-0.562,0.461c-0.17,0.17-0.323,0.359-0.461,0.563
				c-0.134,0.199-0.247,0.412-0.34,0.635c-0.092,0.225-0.162,0.457-0.21,0.689c-0.049,0.242-0.07,0.486-0.07,0.725
				c0,0.971,0.396,1.922,1.082,2.609c0.686,0.688,1.639,1.084,2.609,1.084c0.24,0,0.484-0.027,0.722-0.074
				c0.236-0.049,0.47-0.119,0.688-0.213c0.226-0.09,0.441-0.203,0.64-0.338c0.205-0.133,0.392-0.287,0.563-0.459
				c0.168-0.168,0.324-0.357,0.455-0.561c0.135-0.199,0.25-0.412,0.342-0.639c0.092-0.221,0.16-0.453,0.211-0.689
				c0.047-0.238,0.072-0.482,0.072-0.721C150.813,74.035,150.788,73.792,150.741,73.55z"/>
		</g>
	</g>
	<g>
		<g>
			<path fill="#F97D00" d="M83.403,100.164v-0.561c0-2.91,2.367-5.279,5.277-5.279c0.053,0,0.104,0,0.158-0.004l11.246-0.477
				c6.568-0.045,11.897-5.404,11.897-11.982c0-6.605-5.376-11.982-11.983-11.982h-25.13c-2.533,0-4.598-2.063-4.598-4.598
				c0-1.225,0.484-2.379,1.363-3.242c0.842-0.83,1.943-1.283,3.105-1.283c0.043,0,0.086,0,0.129,0h21.988
				c8.201,0,14.874-6.674,14.874-14.875c0-8.201-6.673-14.873-14.874-14.873h-25.01c-2.039,0-3.693,1.652-3.693,3.693
				c0,2.039,1.654,3.691,3.693,3.691h25.012c4.129,0,7.488,3.359,7.488,7.488c0,4.131-3.359,7.488-7.488,7.488L74.896,53.37
				c-3.164-0.045-6.17,1.166-8.443,3.404c-2.299,2.264-3.566,5.285-3.566,8.506c0,6.609,5.375,11.984,11.982,11.984H100
				c2.535,0,4.598,2.061,4.598,4.598c0,2.535-2.063,4.598-4.598,4.598c-0.053,0-0.104,0-0.156,0.004l-11.246,0.475
				c-6.943,0.047-12.58,5.709-12.58,12.67l0.002,0.557c-16.035,1.842-28.531,15.499-28.531,32.018v29.596
				c0,17.77,14.459,32.229,32.23,32.229c17.771,0,32.232-14.459,32.232-32.229v-29.596C111.95,115.659,99.446,102,83.403,100.164z
				 M54.874,132.183c0-12.445,9.195-22.783,21.152-24.572v30.119H54.874V132.183z M104.565,161.779
				c0,13.697-11.146,24.845-24.848,24.845c-13.699,0-24.844-11.146-24.844-24.845v-16.663h49.691L104.565,161.779L104.565,161.779z
				 M104.565,137.73H83.411v-30.119c11.955,1.789,21.154,12.127,21.154,24.572V137.73z"/>
		</g>
	</g>
	<g>
		<g>
			<path fill="#F97D00" d="M61.245,33.976c-0.047-0.232-0.117-0.465-0.209-0.689c-0.092-0.221-0.209-0.436-0.34-0.635
				c-0.133-0.205-0.287-0.393-0.459-0.561c-0.686-0.688-1.639-1.084-2.609-1.084c-0.97,0-1.924,0.396-2.611,1.084
				c-0.168,0.168-0.324,0.355-0.457,0.561c-0.137,0.199-0.248,0.414-0.34,0.635c-0.096,0.225-0.166,0.457-0.215,0.689
				c-0.047,0.24-0.07,0.484-0.07,0.725c0,0.241,0.023,0.484,0.07,0.719c0.049,0.238,0.119,0.471,0.215,0.693
				c0.092,0.225,0.203,0.438,0.338,0.637c0.135,0.203,0.291,0.393,0.459,0.563c0.17,0.168,0.359,0.326,0.563,0.459
				c0.199,0.131,0.412,0.244,0.635,0.338c0.225,0.092,0.457,0.164,0.693,0.211c0.236,0.047,0.48,0.072,0.721,0.072
				c0.971,0,1.924-0.395,2.609-1.08c0.172-0.17,0.326-0.359,0.459-0.563c0.131-0.199,0.248-0.412,0.34-0.637
				c0.092-0.223,0.162-0.455,0.209-0.693c0.049-0.234,0.074-0.479,0.074-0.719C61.32,34.461,61.294,34.216,61.245,33.976z"/>
		</g>
	</g>
	<g>
		<g>
			<path fill="#F97D00" d="M236.521,67.853c-0.406-8.713-4.797-13.027-8.324-16.492c-3.815-3.748-6.118-6.012-3.942-13.43
				c0.983-3.357-0.373-5.121-1.271-5.873c-1.112-0.936-3.104-1.725-6.26-0.162c-4.086,2.021-10.287,7.969-15.08,14.459
				c-4.401,5.961-9.563,14.887-9.156,23.559c0.304,6.486,3.054,12.432,7.543,16.617c-2.219,2.994-3.532,6.695-3.532,10.699
				c0,2.541,0.517,4.961,1.459,7.158v72.161c0,8.783,7.146,15.929,15.928,15.929c8.781,0,15.929-7.146,15.929-15.929v-69.774
				c1.721-2.775,2.703-6.047,2.703-9.545c0.002-3.957-1.283-7.615-3.453-10.59C234.069,81.992,236.862,75.136,236.521,67.853z
				 M222.427,176.549c0,4.709-3.832,8.543-8.543,8.543s-8.543-3.834-8.543-8.543v-63.793c1.918,1.123,4.074,1.912,6.402,2.271
				c0.186,0.027,0.373,0.041,0.563,0.041h4.404c0.188,0,0.375-0.014,0.561-0.041c0.244-0.039,0.486-0.082,0.729-0.131
				c0.153-0.029,0.306-0.064,0.459-0.098c0.063-0.016,0.131-0.027,0.194-0.045c1.326-0.31,2.591-0.76,3.773-1.332V176.549
				L222.427,176.549z M219.497,106.603c-0.014,0.008-0.029,0.016-0.045,0.023c-0.107,0.059-0.213,0.111-0.322,0.164
				c-0.053,0.023-0.104,0.049-0.156,0.072c-0.082,0.039-0.166,0.078-0.248,0.115c-0.078,0.033-0.158,0.066-0.238,0.1
				c-0.063,0.025-0.129,0.051-0.192,0.078c-0.101,0.037-0.196,0.072-0.299,0.109c-0.052,0.016-0.103,0.035-0.151,0.053
				c-0.115,0.037-0.228,0.072-0.343,0.105c-0.043,0.014-0.086,0.027-0.129,0.041c-0.125,0.033-0.25,0.066-0.375,0.096
				c-0.035,0.008-0.069,0.018-0.104,0.025c-0.162,0.037-0.324,0.072-0.488,0.102h-3.791c-0.004,0-0.008-0.002-0.012-0.004
				c-0.179-0.031-0.355-0.068-0.531-0.111c-0.068-0.018-0.139-0.033-0.209-0.051c-0.104-0.029-0.207-0.057-0.313-0.086
				c-0.086-0.027-0.174-0.053-0.26-0.08c-0.065-0.02-0.131-0.045-0.194-0.066c-4.214-1.441-7.21-5.484-7.21-10.059
				c0-3.424,1.63-6.475,4.152-8.418c0.098-0.076,0.196-0.148,0.295-0.219c0.17-0.121,0.344-0.24,0.521-0.352
				c0.078-0.049,0.155-0.098,0.233-0.145c0.246-0.146,0.496-0.281,0.752-0.41c0.026-0.012,0.052-0.025,0.078-0.037
				c0.147-0.072,0.299-0.139,0.451-0.205c0.024-0.012,0.051-0.02,0.075-0.031c0.267-0.109,0.535-0.207,0.812-0.297
				c0.086-0.027,0.172-0.053,0.259-0.078c0.186-0.055,0.375-0.105,0.565-0.15c0.146-0.033,0.291-0.066,0.438-0.094
				c0.102-0.02,0.2-0.037,0.301-0.053c0.231-0.037,0.463-0.068,0.699-0.088c0.063-0.006,0.129-0.012,0.192-0.016
				c0.265-0.02,0.53-0.033,0.801-0.033s0.544,0.014,0.812,0.035c0.063,0.004,0.129,0.008,0.191,0.014
				c0.235,0.021,0.469,0.053,0.7,0.09c0.104,0.018,0.209,0.037,0.312,0.055c0.147,0.029,0.297,0.063,0.442,0.098
				c0.193,0.045,0.384,0.096,0.572,0.15c0.078,0.025,0.155,0.049,0.233,0.074c0.265,0.086,0.523,0.18,0.779,0.287
				c0.039,0.014,0.076,0.029,0.113,0.045c0.449,0.191,0.879,0.412,1.293,0.66c0.09,0.057,0.182,0.115,0.271,0.17
				c0.168,0.107,0.33,0.221,0.49,0.334c0.11,0.084,0.225,0.166,0.331,0.252c2.482,1.947,4.08,4.969,4.08,8.361
				C225.132,101.21,222.864,104.792,219.497,106.603z M223.556,81.66c-0.08-0.047-0.162-0.086-0.244-0.133
				c-0.19-0.107-0.387-0.213-0.584-0.314c-0.102-0.053-0.201-0.105-0.303-0.154c-0.66-0.324-1.338-0.605-2.039-0.848
				c-0.039-0.014-0.076-0.027-0.115-0.041c-0.35-0.117-0.705-0.229-1.063-0.324c0,0-0.004,0-0.006-0.002
				c-0.728-0.197-1.474-0.348-2.231-0.451c-0.068-0.01-0.142-0.02-0.209-0.029c-0.294-0.033-0.591-0.064-0.89-0.086
				c-0.088-0.008-0.179-0.016-0.267-0.021c-0.362-0.021-0.729-0.035-1.098-0.035c-0.365,0-0.727,0.014-1.084,0.035
				c-0.088,0.004-0.174,0.014-0.26,0.02c-0.295,0.021-0.588,0.051-0.879,0.088c-0.068,0.008-0.137,0.016-0.205,0.025
				c-1.127,0.15-2.219,0.41-3.271,0.762c-0.031,0.01-0.061,0.02-0.09,0.029c-0.332,0.113-0.662,0.236-0.986,0.367
				c-0.026,0.012-0.055,0.021-0.082,0.033c-0.338,0.141-0.672,0.287-0.998,0.447c-0.071,0.035-0.143,0.074-0.211,0.109
				c-0.227,0.113-0.448,0.229-0.666,0.35c-0.063,0.037-0.131,0.066-0.194,0.104c-3.396-2.891-5.49-7.232-5.715-12.021
				c-0.248-5.293,2.854-12.537,8.514-19.879c2.836-3.676,5.57-6.455,7.731-8.34c-0.612,7.887,3.494,11.922,6.91,15.281
				c3.142,3.082,5.851,5.746,6.123,11.566C229.396,73.519,227.292,78.482,223.556,81.66z"/>
		</g>
	</g>
</g>
</svg>
