<?xml version="1.0" encoding="utf-8"?>
<!-- Generator: Adobe Illustrator 16.0.0, SVG Export Plug-In . SVG Version: 6.00 Build 0)  -->
<!DOCTYPE svg PUBLIC "-//W3C//DTD SVG 1.1//EN" "http://www.w3.org/Graphics/SVG/1.1/DTD/svg11.dtd">
<svg version="1.1" id="Warstwa_1" xmlns="http://www.w3.org/2000/svg" xmlns:xlink="http://www.w3.org/1999/xlink" x="0px" y="0px"
	 width="282.08px" height="218.989px" viewBox="0 0 282.08 218.989" enable-background="new 0 0 282.08 218.989"
	 xml:space="preserve">
<g>
	
		<line fill="none" stroke="#F97D00" stroke-width="8.5039" stroke-linecap="round" stroke-miterlimit="10" x1="44.159" y1="136.694" x2="121.393" y2="136.694"/>
	<path fill="none" stroke="#F97D00" stroke-width="8.5039" stroke-linecap="round" stroke-miterlimit="10" d="M121.393,158.456
		H50.986c-5.655,0-10.24-4.584-10.24-10.24V37.7c0-5.656,4.585-10.241,10.24-10.241h169.828c5.654,0,10.24,4.585,10.24,10.241
		v70.405"/>
	<path fill="none" stroke="#F97D00" stroke-width="7.0866" stroke-linecap="round" stroke-miterlimit="10" d="M202.465,180.217
		c0,5.656-4.584,10.242-10.239,10.242h-46.084c-5.656,0-10.241-4.586-10.241-10.242v-78.085c0-5.655,4.585-10.241,10.241-10.241
		h46.084c5.655,0,10.239,4.586,10.239,10.241V180.217L202.465,180.217z"/>
	
		<line fill="none" stroke="#F97D00" stroke-width="7.0866" stroke-linecap="round" stroke-miterlimit="10" x1="135.9" y1="108.532" x2="202.465" y2="108.532"/>
	
		<line fill="none" stroke="#F97D00" stroke-width="7.0866" stroke-linecap="round" stroke-miterlimit="10" x1="135.9" y1="173.817" x2="202.465" y2="173.817"/>
	<path fill="none" stroke="#F97D00" stroke-width="5.6693" stroke-linecap="round" stroke-miterlimit="10" d="M253.242,179.364
		c0,5.656-4.386,10.241-9.796,10.241h-17.959c-5.407,0-9.795-4.585-9.795-10.241v-48.217c0-5.654,4.388-10.24,9.795-10.24h17.959
		c5.41,0,9.796,4.586,9.796,10.24V179.364z"/>
	
		<line fill="none" stroke="#F97D00" stroke-width="5.6693" stroke-linecap="round" stroke-miterlimit="10" x1="215.692" y1="136.694" x2="253.242" y2="136.694"/>
	
		<line fill="none" stroke="#F97D00" stroke-width="5.6693" stroke-linecap="round" stroke-miterlimit="10" x1="215.692" y1="172.963" x2="253.242" y2="172.963"/>
	
		<line fill="none" stroke="#F97D00" stroke-width="7.0866" stroke-linecap="round" stroke-miterlimit="10" x1="114.992" y1="158.456" x2="110.725" y2="189.605"/>
	
		<line fill="none" stroke="#F97D00" stroke-width="8.5039" stroke-linecap="round" stroke-miterlimit="10" x1="102.191" y1="188.752" x2="121.393" y2="188.752"/>
</g>
</svg>
