<?xml version="1.0" encoding="utf-8"?>
<!-- Generator: Adobe Illustrator 16.0.3, SVG Export Plug-In . SVG Version: 6.00 Build 0)  -->
<!DOCTYPE svg PUBLIC "-//W3C//DTD SVG 1.1//EN" "http://www.w3.org/Graphics/SVG/1.1/DTD/svg11.dtd">
<svg version="1.1" id="Warstwa_1" xmlns="http://www.w3.org/2000/svg" xmlns:xlink="http://www.w3.org/1999/xlink" x="0px" y="0px"
	 width="273.667px" height="66px" viewBox="0 0 273.667 66" enable-background="new 0 0 273.667 66" xml:space="preserve">
<g>
	<g>
		<g id="instagram_4_">
			<g>
				<path fill="#FFFFFF" d="M179.914,13.031H175.4c-1.475,0-2.674,1.201-2.674,2.674v4.514c0,1.475,1.199,2.676,2.674,2.676h4.514
					c1.477,0,2.676-1.201,2.676-2.676v-4.514C182.59,14.23,181.391,13.031,179.914,13.031z M180.248,20.219
					c0,0.184-0.15,0.332-0.334,0.332H175.4c-0.184,0-0.33-0.148-0.33-0.332v-4.514c0-0.184,0.146-0.332,0.33-0.332h4.514
					c0.184,0,0.334,0.148,0.334,0.332V20.219z M177.301,6.795h-28.109c-5.811,0-10.539,4.729-10.539,10.541v26.936
					c0,5.813,4.729,10.541,10.539,10.541h28.109c5.811,0,10.541-4.728,10.541-10.541V17.336
					C187.842,11.523,183.111,6.795,177.301,6.795z M185.5,44.271c0,4.521-3.678,8.199-8.199,8.199h-28.109
					c-4.52,0-8.197-3.678-8.197-8.199V26.705h11.807c-2.234,2.49-3.609,5.768-3.609,9.369c0,7.75,6.307,14.053,14.055,14.053
					c7.75,0,14.055-6.303,14.055-14.053c0-3.602-1.375-6.879-3.607-9.369H185.5V44.271z M163.246,24.363
					c6.457,0,11.713,5.254,11.713,11.711s-5.256,11.713-11.713,11.713s-11.711-5.256-11.711-11.713S156.789,24.363,163.246,24.363z
					 M185.5,24.363h-14.502c-2.223-1.477-4.887-2.344-7.752-2.344c-2.861,0-5.527,0.867-7.75,2.344h-14.502v-7.027
					c0-4.521,3.678-8.199,8.197-8.199h28.109c4.521,0,8.199,3.678,8.199,8.199V24.363z M163.246,44.271
					c4.521,0,8.199-3.676,8.199-8.197s-3.678-8.197-8.199-8.197c-4.52,0-8.197,3.676-8.197,8.197S158.727,44.271,163.246,44.271z
					 M163.246,30.219c3.23,0,5.857,2.627,5.857,5.855s-2.627,5.855-5.857,5.855c-3.229,0-5.855-2.627-5.855-5.855
					S160.018,30.219,163.246,30.219z"/>
			</g>
		</g>
	</g>
	<g>
		<g id="twitter_4_">
			<g>
				<path fill="#FFFFFF" d="M260.53,19.283c-0.395-0.27-0.916-0.262-1.297,0.027c-0.266,0.197-0.66,0.371-1.119,0.524
					c1.514-1.876,1.536-3.13,1.514-3.438c-0.031-0.402-0.274-0.758-0.639-0.93c-0.365-0.17-0.795-0.132-1.121,0.104
					c-2.063,1.475-4.127,1.797-5.33,1.84c-1.961-1.82-4.494-2.818-7.188-2.818c-5.826,0-10.566,4.738-10.566,10.564
					c0,0.422,0.023,0.845,0.074,1.262c-9.725-0.244-17.611-9.408-17.689-9.501c-0.234-0.278-0.586-0.423-0.949-0.39
					c-0.359,0.031-0.682,0.234-0.865,0.547c-2.475,4.23-1.463,8.24,0.234,11.043c-0.316-0.17-0.697-0.18-1.027-0.018
					c-0.371,0.186-0.611,0.564-0.617,0.98c-0.072,4.445,1.957,7.109,4.006,8.66c-0.15,0.063-0.289,0.156-0.4,0.279
					c-0.268,0.293-0.361,0.703-0.242,1.082c1.424,4.592,4.768,6.313,7.113,6.957c-2.689,1.899-6.02,2.342-8.549,2.342
					c-1.615,0-2.727-0.191-2.738-0.192c-0.504-0.089-1.01,0.181-1.217,0.653c-0.203,0.474-0.059,1.025,0.354,1.334
					c5.074,3.816,11.203,4.617,15.453,4.617c3.357,0,5.689-0.49,5.809-0.516c21.807-5.092,22.633-24.645,22.6-28.207
					c4.088-3.755,4.741-5.223,4.84-5.588C261.1,20.043,260.922,19.553,260.53,19.283z M254.254,24.785
					c-0.252,0.229-0.387,0.563-0.363,0.902c0.016,0.213,1.207,21.283-20.846,26.434c-0.021,0.006-2.219,0.464-5.324,0.464
					c-2.893,0-6.725-0.396-10.379-2c3.346-0.214,7.449-1.241,10.402-4.507c0.295-0.326,0.367-0.795,0.188-1.199
					c-0.18-0.402-0.584-0.662-1.023-0.662c-0.207,0-4.594-0.053-6.789-4.132c1.016,0.032,1.938-0.118,2.621-0.429
					c0.438-0.198,0.697-0.658,0.645-1.135c-0.051-0.479-0.404-0.871-0.875-0.971c-0.238-0.05-5.289-1.203-6.199-6.531
					c0.791,0.303,1.754,0.514,2.686,0.375c0.432-0.062,0.789-0.375,0.908-0.795c0.121-0.422-0.016-0.873-0.348-1.156
					c-0.223-0.189-5.041-4.375-2.947-9.854c2.805,2.85,10.441,9.553,19.646,9.036c0.332-0.021,0.641-0.187,0.836-0.456
					c0.197-0.27,0.264-0.613,0.18-0.936c-0.17-0.674-0.258-1.375-0.258-2.076c0-4.596,3.738-8.336,8.338-8.336
					c2.252,0,4.363,0.886,5.943,2.492c0.205,0.205,0.484,0.326,0.775,0.33l0.172,0.002c0.82,0,2.104-0.1,3.576-0.574
					c-0.471,0.498-1.084,1.061-1.879,1.674c-0.391,0.303-0.535,0.824-0.357,1.283c0.176,0.461,0.641,0.75,1.125,0.711
					c0.182-0.016,0.977-0.084,1.957-0.26C256.045,23.113,255.258,23.876,254.254,24.785z"/>
			</g>
		</g>
	</g>
	<g>
		<g id="linkedin_4_">
			<g>
				<path fill="#FFFFFF" d="M76.217,19.768h-9.318c-0.637,0-1.154,0.516-1.154,1.152v32.574c0,0.637,0.518,1.154,1.154,1.154h9.32
					c0.637,0,1.154-0.518,1.154-1.154V20.92C77.371,20.283,76.855,19.768,76.217,19.768z M75.063,52.34h-7.01V22.076h7.01V52.34z
					 M102.197,19.371c-4.523,0-7.484,1.953-9.203,3.65l-0.211-2.211c-0.059-0.594-0.557-1.043-1.15-1.043h-0.021l-8.496,0.162
					c-0.313,0.006-0.607,0.139-0.82,0.365s-0.324,0.529-0.311,0.842c0.105,2.377,0.104,5.158,0.098,8.377L82.08,53.658
					c0,0.639,0.518,1.154,1.154,1.154h9.32c0.637,0,1.154-0.516,1.154-1.154v-18.83c0-0.961,0.084-1.656,0.248-2.07
					c0.58-1.479,2.498-3.007,4.699-3.007c2.85,0,4.549,2.167,4.549,5.8v18.107c0,0.639,0.518,1.154,1.156,1.154h9.154
					c0.639,0,1.154-0.516,1.154-1.154V34.369C114.67,24.977,110.008,19.371,102.197,19.371z M112.361,52.504h-6.846V35.551
					c0-4.928-2.695-8.109-6.861-8.109c-3.307,0-5.994,2.305-6.844,4.467c-0.279,0.699-0.41,1.629-0.41,2.92v17.676h-7.01V29.516
					c0.004-2.732,0.008-5.152-0.057-7.301l6.252-0.119l0.359,3.723c0.059,0.594,0.557,1.043,1.15,1.043h0.195
					c0.398,0,0.768-0.203,0.98-0.541c0.68-1.088,3.336-4.641,8.928-4.641c6.461,0,10.164,4.625,10.164,12.689v18.135H112.361
					L112.361,52.504z M71.949,6.182c-3.748,0-6.469,2.584-6.469,6.143s2.666,6.139,6.338,6.139c3.787,0,6.535-2.58,6.535-6.166
					C78.268,8.697,75.635,6.182,71.949,6.182z M71.818,16.154c-2.371,0-4.027-1.574-4.027-3.83c0-2.293,1.672-3.832,4.158-3.832
					c2.434,0,4.041,1.514,4.096,3.832C76.045,14.615,74.346,16.154,71.818,16.154z"/>
			</g>
		</g>
	</g>
	<g>
		<g id="facebook_4_">
			<g>
				<path fill="#FFFFFF" d="M40.357,5.633l-7.479,0.002c0,0-0.15-0.009-0.424-0.009c-1.533,0-9.291,0.425-11.402,8.743
					c-0.033,0.092-0.744,2.176-0.754,7.018h-7.094c-0.629,0-1.139,0.51-1.139,1.141v6.535c0,0.629,0.51,1.139,1.139,1.139h7.758
					v23.473c0,0.629,0.512,1.139,1.141,1.139h8.881c0.629,0,1.141-0.51,1.141-1.139V30.225h7.781c0.629,0,1.141-0.51,1.141-1.139
					v-6.559c0-0.631-0.512-1.141-1.141-1.141h-7.766v-2.804c0-1.87,1.184-3.864,4.512-3.864h3.705c0.629,0,1.139-0.511,1.139-1.141
					V6.771C41.496,6.143,40.986,5.633,40.357,5.633z M39.217,12.439h-2.564c-4.691,0-6.793,3.084-6.793,6.144v3.944
					c0,0.629,0.512,1.14,1.141,1.14h7.766v4.278h-7.781c-0.629,0-1.139,0.513-1.139,1.141v23.447h-6.604V29.063
					c0-0.629-0.51-1.141-1.139-1.141h-7.758v-4.255h7.102c0.307,0,0.6-0.124,0.814-0.343c0.213-0.219,0.332-0.514,0.326-0.82
					c-0.102-5.184,0.611-7.365,0.645-7.477c1.682-6.609,7.484-7.123,9.223-7.123c0.158,0,0.254,0.004,0.346,0.008h6.416V12.439
					L39.217,12.439z"/>
			</g>
		</g>
	</g>
</g>
</svg>
